<?xml version="1.0" encoding="UTF-8"?>
<!DOCTYPE svg PUBLIC "-//W3C//DTD SVG 1.1//EN" "http://www.w3.org/Graphics/SVG/1.1/DTD/svg11.dtd">

<svg xmlns="http://www.w3.org/2000/svg" xmlns:xlink="http://www.w3.org/1999/xlink" xmlns:xs="http://www.w3.org/2001/XMLSchema" xmlns:wb="http://www.ti.com/webench" version="1.1" width="100%" height="100%" viewBox="0 0 1605.0 500.0" preserveAspectRatio="xMidYMid meet">
  <defs>
    <g id="WB_CONTINUATION">
      <circle xmlns="" opacity="0.01" fill="#ffffff" stroke="#000000" stroke-width="0" cx="0" cy="0" r="14" />
      <line fill="none" stroke="#CC0000" stroke-width="2" x1="0" y1="10" x2="0" y2="-10" />
      <line fill="none" stroke="#CC0000" stroke-width="2" x1="-10" y1="-10" x2="10" y2="-10" />
    </g>
    <g id="WB_BLOCK_IO">
      <circle xmlns="" opacity="0.01" fill="#ffffff" stroke="#000000" stroke-width="0" cx="0" cy="0" r="14" />
      <line stroke="#CC0000" fill="none" stroke-width="2" x1="-5" y1="0" x2="5" y2="0" />
    </g>
    <g id="WB_STARTUP_VOLTAGE_SOURCE">
      <circle xmlns="" opacity="0.01" fill="#ffffff" stroke="#000000" stroke-width="0" cx="0" cy="0" r="14" />
      <circle fill-opacity="0.01" fill="#CC0000" stroke="#CC0000" stroke-width="2" cx="0" cy="0" r="14" />
      <polyline fill="none" stroke="#CC0000" stroke-width="2" points="-6,-11 -6,7 5,9 5,12 " />
      <line fill="none" stroke="#CC0000" stroke-width="2" x1="16" y1="-12" x2="16" y2="-18" />
      <line fill="none" stroke="#CC0000" stroke-width="2" x1="-17" y1="-12" x2="-17" y2="-18" />
      <line fill="none" stroke="#CC0000" stroke-width="2" x1="-14" y1="-15" x2="-20" y2="-15" />
      <line fill="none" stroke="#CC0000" stroke-width="2" x1="-15" y1="0" x2="-30" y2="0" />
      <line fill="none" stroke="#CC0000" stroke-width="2" x1="30" y1="0" x2="15" y2="0" />
    </g>
    <g id="WB_SOURCE_RESISTOR">
      <circle xmlns="" opacity="0.01" fill="#ffffff" stroke="#000000" stroke-width="0" cx="0" cy="0" r="14" />
      <polyline fill="none" stroke="#CC0000" stroke-width="2" stroke-linecap="round" stroke-linejoin="round" points="30,0 20,0 15,-6 7.5,6 0,-6 -7.5,6 -15,-6 -20,0 -30,0" />
    </g>
    <g id="WB_PRIM_STARTUP_VOLTAGE_SOURCE">
      <circle xmlns="" opacity="0.01" fill="#ffffff" stroke="#000000" stroke-width="0" cx="0" cy="0" r="14" />
      <circle fill-opacity="0.01" fill="#CC0000" stroke="#CC0000" stroke-width="2" cx="0" cy="0" r="14" />
      <polyline fill="none" stroke="#CC0000" stroke-width="2" points="-6,-11 -6,7 5,9 5,12 " />
      <line fill="none" stroke="#CC0000" stroke-width="2" x1="16" y1="-12" x2="16" y2="-18" />
      <line fill="none" stroke="#CC0000" stroke-width="2" x1="-17" y1="-12" x2="-17" y2="-18" />
      <line fill="none" stroke="#CC0000" stroke-width="2" x1="-14" y1="-15" x2="-20" y2="-15" />
      <line fill="none" stroke="#CC0000" stroke-width="2" x1="-15" y1="0" x2="-30" y2="0" />
      <line fill="none" stroke="#CC0000" stroke-width="2" x1="30" y1="0" x2="15" y2="0" />
    </g>
    <g id="WB_CURRENT_PROBE">
      <circle xmlns="" opacity="0.01" fill="#ffffff" stroke="#000000" stroke-width="0" cx="0" cy="0" r="14" />
      <line stroke="#CC0000" stroke-width="2" stroke-linecap="square" stroke-linejoin="round" x1="-16" y1="0" x2="-10" y2="0" />
      <polyline stroke="#CC0000" stroke-width="2" stroke-linecap="square" stroke-linejoin="round" points="6,0 3,-3.5 3,3.5 6,0 -6,0 " />
      <line stroke="#CC0000" stroke-width="2" stroke-linecap="square" stroke-linejoin="round" x1="10" y1="0" x2="16" y2="0" />
      <rect stroke-width="1" x="-9.5" y="-7" fill="none" stroke="#CC0000" width="19" height="14" />
    </g>
    <g id="WB_PWL_CURRENT_LOAD">
      <circle xmlns="" opacity="0.01" fill="#ffffff" stroke="#000000" stroke-width="0" cx="0" cy="0" r="14" />
      <circle fill-opacity="0.01" fill="#CC0000" stroke="#CC0000" stroke-width="2" cx="0" cy="0" r="14" />
      <line y1="0" x2="-20" stroke="#CC0000" x1="-30" fill="none" stroke-width="2" y2="0" />
      <line y1="0" x2="20" stroke="#CC0000" x1="30" fill="none" stroke-width="2" y2="0" />
      <polyline stroke="#CC0000" points="-7,6 4,8  " stroke-linejoin="round" fill="none" stroke-width="2" stroke-linecap="round" />
      <polyline stroke="#CC0000" points="-7,-6 4,-8  " stroke-linejoin="round" fill="none" stroke-width="2" stroke-linecap="round" />
      <polyline stroke="#CC0000" points="-20,0 -15,0  " stroke-linejoin="round" fill="none" stroke-width="2" stroke-linecap="round" />
      <polyline stroke="#CC0000" points="20,0 15,0  " stroke-linejoin="round" fill="none" stroke-width="2" stroke-linecap="round" />
      <polyline stroke="#CC0000" points="-7,-6 -7,6  " stroke-linejoin="round" fill="none" stroke-width="2" stroke-linecap="round" />
      <polyline stroke="#CC0000" points="4,-8 4,-11  " stroke-linejoin="round" fill="none" stroke-width="2" stroke-linecap="round" />
      <polyline stroke="#CC0000" points="4,8 4,11  " stroke-linejoin="round" fill="none" stroke-width="2" stroke-linecap="round" />
      <line x1="23" y1="-13" x2="23" y2="-7" stroke="#CC0000" fill="none" stroke-width="2" stroke-linecap="round" />
      <line x1="-23" y1="-13" x2="-23" y2="-7" stroke="#CC0000" fill="none" stroke-width="2" stroke-linecap="round" />
      <line x1="-26" y1="-10" x2="-20" y2="-10" stroke="#CC0000" fill="none" stroke-width="2" stroke-linecap="round" />
    </g>
    <g id="WB_CAPACITOR">
      <circle xmlns="" opacity="0.01" fill="#ffffff" stroke="#000000" stroke-width="0" cx="0" cy="0" r="14" />
      <line y1="0" x2="20" stroke="#115566" x1="30" fill="none" stroke-width="2" y2="0" />
      <line y1="0" x2="-20" stroke="#115566" x1="-30" fill="none" stroke-width="2" y2="0" />
      <polyline stroke="#115566" points="3,12 3,-12  " stroke-linejoin="round" fill="none" stroke-width="2" stroke-linecap="round" />
      <polyline stroke="#115566" points="-20,0 -3,0  " stroke-linejoin="round" fill="none" stroke-width="2" stroke-linecap="round" />
      <polyline stroke="#115566" points="3,0 20,0  " stroke-linejoin="round" fill="none" stroke-width="2" stroke-linecap="round" />
      <polyline stroke="#115566" points="-3,12 -3,-12  " stroke-linejoin="round" fill="none" stroke-width="2" stroke-linecap="round" />
    </g>
    <g id="WB_GND">
      <circle xmlns="" opacity="0.01" fill="#ffffff" stroke="#000000" stroke-width="0" cx="0" cy="0" r="14" />
      <line fill="none" stroke="black" stroke-width="2" x1="0" y1="-10" x2="0" y2="0" />
      <line fill="none" stroke="black" stroke-width="2" x1="-13" y1="0" x2="13" y2="0" />
      <line fill="none" stroke="black" stroke-width="2" x1="-9" y1="4" x2="9" y2="4" />
      <line fill="none" stroke="black" stroke-width="2" x1="-3" y1="8" x2="3" y2="8" />
    </g>
    <g id="WB_INDUCTOR">
      <circle xmlns="" opacity="0.01" fill="#ffffff" stroke="#000000" stroke-width="0" cx="0" cy="0" r="14" />
      <path fill="none" stroke="#115566" stroke-width="2" stroke-linecap="round" stroke-linejoin="round" d="M-10,0c0-0.6-0.2-1.8-0.6-3.3c-0.5-2.4-2-3.7-4.4-4c-2.4,0.3-3.8,1.6-4.3,4c-0.6,2.3-0.8,3.6-0.7,3M-20,0H-30" />
      <path fill="none" stroke="#115566" stroke-width="2" stroke-linecap="round" stroke-linejoin="round" d="M0,0c0-0.6-0.2-1.8-0.6-3.3c-0.5-2.4-2-3.7-4.4-4c-2.4,0.3-3.8,1.6-4.3,4c-0.6,2.3-0.8,3.6-0.7,4" />
      <path fill="none" stroke="#115566" stroke-width="2" stroke-linecap="round" stroke-linejoin="round" d="M10,0c0-0.6-0.2-1.8-0.6-3.3c-0.5-2.4-2-3.7-4.4-4c-2.4,0.3-3.8,1.6-4.3,4c-0.6,2.3-0.8,3.6-0.7,4" />
      <path fill="none" stroke="#115566" stroke-width="2" stroke-linecap="round" stroke-linejoin="round" d="M30,0H20c0-0.6-0.2-1.8-0.6-3.3c-0.5-2.4-2-3.7-4.4-4c-2.4,0.3-3.8,1.6-4.3,4c-0.6,2.3-0.8,3.6-0.7,4" />
      <path fill="none" stroke="#115566" stroke-width="2" stroke-linecap="round" stroke-linejoin="round" d=" M10,0 c0.1,0.4,0.1,0.6,0,0.7" />
      <path fill="none" stroke="#115566" stroke-width="2" stroke-linecap="round" stroke-linejoin="round" d=" M0,0  c0.1,0.4,0.1,0.6,0,0.7" />
      <path fill="none" stroke="#115566" stroke-width="2" stroke-linecap="round" stroke-linejoin="round" d=" M-10,0c0.1,0.4,0.1,0.6,0,0.7" />
    </g>
    <g id="WB_RESISTOR">
      <circle xmlns="" opacity="0.01" fill="#ffffff" stroke="#000000" stroke-width="0" cx="0" cy="0" r="14" />
      <polyline fill="none" stroke="#115566" stroke-width="2" stroke-linecap="round" stroke-linejoin="round" points="30,0 20,0 15,-6 7.5,6 0,-6 -7.5,6 -15,-6 -20,0 -30,0" />
    </g>
    <g id="WB_VOLTAGE_PROBE">
      <circle xmlns="" opacity="0.01" fill="#ffffff" stroke="#000000" stroke-width="0" cx="0" cy="0" r="14" />
      <rect stroke-width="1" width="20" stroke="#CC0000" x="-10" height="19.5" y="-30" fill="#CC0000" fill-opacity="0.01" />
      <polyline stroke="#CC0000" points="7,-27 4,-22 3,-26 0,-18 -1,-22 -5,-14  " stroke-linejoin="round" fill="none" stroke-width="2" stroke-linecap="round" />
      <line y1="0" x2="0" stroke="#CC0000" x1="0" fill="none" stroke-width="2" y2="-10" />
    </g>
    <g id="WB_PRIM_PULSE_VOLTAGE_SOURCE">
      <circle xmlns="" opacity="0.01" fill="#ffffff" stroke="#000000" stroke-width="0" cx="0" cy="0" r="14" />
      <circle fill-opacity="0.01" fill="#CC0000" stroke="#CC0000" stroke-width="2" cx="0" cy="0" r="14" />
      <line y1="0" x2="-20" stroke="#CC0000" x1="-30" fill="none" stroke-width="2" y2="0" />
      <line y1="0" x2="20" stroke="#CC0000" x1="30" fill="none" stroke-width="2" y2="0" />
      <polyline stroke="#CC0000" points="-7,6 4,8  " stroke-linejoin="round" fill="none" stroke-width="2" stroke-linecap="round" />
      <polyline stroke="#CC0000" points="-7,-6 4,-8  " stroke-linejoin="round" fill="none" stroke-width="2" stroke-linecap="round" />
      <polyline stroke="#CC0000" points="-20,0 -15,0  " stroke-linejoin="round" fill="none" stroke-width="2" stroke-linecap="round" />
      <polyline stroke="#CC0000" points="20,0 15,0  " stroke-linejoin="round" fill="none" stroke-width="2" stroke-linecap="round" />
      <polyline stroke="#CC0000" points="-7,-6 -7,6  " stroke-linejoin="round" fill="none" stroke-width="2" stroke-linecap="round" />
      <polyline stroke="#CC0000" points="4,-8 4,-11  " stroke-linejoin="round" fill="none" stroke-width="2" stroke-linecap="round" />
      <polyline stroke="#CC0000" points="4,8 4,11  " stroke-linejoin="round" fill="none" stroke-width="2" stroke-linecap="round" />
      <line x1="23" y1="-13" x2="23" y2="-7" stroke="#CC0000" fill="none" stroke-width="2" stroke-linecap="round" />
      <line x1="-23" y1="-13" x2="-23" y2="-7" stroke="#CC0000" fill="none" stroke-width="2" stroke-linecap="round" />
      <line x1="-26" y1="-10" x2="-20" y2="-10" stroke="#CC0000" fill="none" stroke-width="2" stroke-linecap="round" />
    </g>
    <g id="WB_DIODE">
      <circle xmlns="" opacity="0.01" fill="#ffffff" stroke="#000000" stroke-width="0" cx="0" cy="0" r="14" />
      <path fill="#115566" d="M-11,0L10,-12,10,12 -11,0" />
      <line fill="none" stroke="#115566" stroke-width="2" x1="30" y1="0" x2="-30" y2="0" />
      <line fill="none" stroke="#115566" stroke-width="2" x1="-10" y1="12" x2="-10" y2="-12" />
    </g>
    <g id="WB_PRIM_AC_VOLTAGE_SOURCE">
      <circle xmlns="" opacity="0.01" fill="#ffffff" stroke="#000000" stroke-width="0" cx="0" cy="0" r="14" />
      <circle fill-opacity="0.01" fill="#CC0000" stroke="#CC0000" stroke-width="2" cx="0" cy="0" r="14" />
      <line y1="0" x2="-20" stroke="#CC0000" x1="-30" fill="none" stroke-width="2" y2="0" />
      <line y1="0" x2="20" stroke="#CC0000" x1="30" fill="none" stroke-width="2" y2="0" />
      <polyline stroke="#CC0000" points="-20,0 -15,0  " stroke-linejoin="round" fill="none" stroke-width="2" stroke-linecap="round" />
      <polyline stroke="#CC0000" points="20,0 15,0  " stroke-linejoin="round" fill="none" stroke-width="2" stroke-linecap="round" />
      <path stroke="#CC0000" d="M0,10A5,5 0 0,1 0,0 " fill="none" stroke-width="2" stroke-linecap="round" />
      <path stroke="#CC0000" d="M0-10A5,5 0 1,1 0,0 " fill="none" stroke-width="2" stroke-linecap="round" />
      <line x1="23" y1="-13" x2="23" y2="-7" stroke="#CC0000" fill="none" stroke-width="2" stroke-linecap="round" />
      <line x1="-23" y1="-13" x2="-23" y2="-7" stroke="#CC0000" fill="none" stroke-width="2" stroke-linecap="round" />
      <line x1="-26" y1="-10" x2="-20" y2="-10" stroke="#CC0000" fill="none" stroke-width="2" stroke-linecap="round" />
    </g>
    <g id="WB_PRIMITIVE_CAPACITOR">
      <circle xmlns="" opacity="0.01" fill="#ffffff" stroke="#000000" stroke-width="0" cx="0" cy="0" r="14" />
      <line y1="0" x2="20" stroke="#CC0000" x1="30" fill="none" stroke-width="2" y2="0" />
      <line y1="0" x2="-20" stroke="#CC0000" x1="-30" fill="none" stroke-width="2" y2="0" />
      <polyline stroke="#CC0000" points="3,12 3,-12  " stroke-linejoin="round" fill="none" stroke-width="2" stroke-linecap="round" />
      <polyline stroke="#CC0000" points="-20,0 -3,0  " stroke-linejoin="round" fill="none" stroke-width="2" stroke-linecap="round" />
      <polyline stroke="#CC0000" points="3,0 20,0  " stroke-linejoin="round" fill="none" stroke-width="2" stroke-linecap="round" />
      <polyline stroke="#CC0000" points="-3,12 -3,-12  " stroke-linejoin="round" fill="none" stroke-width="2" stroke-linecap="round" />
    </g>
    <g id="WB_PRIMITIVE_INDUCTOR">
      <circle xmlns="" opacity="0.01" fill="#ffffff" stroke="#000000" stroke-width="0" cx="0" cy="0" r="14" />
      <path fill="none" stroke="#CC0000" stroke-width="2" stroke-linecap="round" stroke-linejoin="round" d="M-10,0c0-0.6-0.2-1.8-0.6-3.3c-0.5-2.4-2-3.7-4.4-4c-2.4,0.3-3.8,1.6-4.3,4c-0.6,2.3-0.8,3.6-0.7,3M-20,0H-30" />
      <path fill="none" stroke="#CC0000" stroke-width="2" stroke-linecap="round" stroke-linejoin="round" d="M0,0c0-0.6-0.2-1.8-0.6-3.3c-0.5-2.4-2-3.7-4.4-4c-2.4,0.3-3.8,1.6-4.3,4c-0.6,2.3-0.8,3.6-0.7,4" />
      <path fill="none" stroke="#CC0000" stroke-width="2" stroke-linecap="round" stroke-linejoin="round" d="M10,0c0-0.6-0.2-1.8-0.6-3.3c-0.5-2.4-2-3.7-4.4-4c-2.4,0.3-3.8,1.6-4.3,4c-0.6,2.3-0.8,3.6-0.7,4" />
      <path fill="none" stroke="#CC0000" stroke-width="2" stroke-linecap="round" stroke-linejoin="round" d="M30,0H20c0-0.6-0.2-1.8-0.6-3.3c-0.5-2.4-2-3.7-4.4-4c-2.4,0.3-3.8,1.6-4.3,4c-0.6,2.3-0.8,3.6-0.7,4" />
      <path fill="none" stroke="#CC0000" stroke-width="2" stroke-linecap="round" stroke-linejoin="round" d=" M10,0 c0.1,0.4,0.1,0.6,0,0.7" />
      <path fill="none" stroke="#CC0000" stroke-width="2" stroke-linecap="round" stroke-linejoin="round" d=" M0,0  c0.1,0.4,0.1,0.6,0,0.7" />
      <path fill="none" stroke="#CC0000" stroke-width="2" stroke-linecap="round" stroke-linejoin="round" d=" M-10,0c0.1,0.4,0.1,0.6,0,0.7" />
    </g>
    <g id="WB_TPS55330RTE">
      <circle xmlns="" opacity="0.01" fill="#ffffff" stroke="#000000" stroke-width="0" cx="0" cy="0" r="14" />
      <line fill="none" stroke="#000000" stroke-width="2" stroke-linecap="round" stroke-linejoin="round" x1="-60" y1="90" x2="60" y2="90" />
      <line fill="none" stroke="#000000" stroke-width="2" stroke-linecap="round" stroke-linejoin="round" x1="60" y1="90" x2="60" y2="-90" />
      <line fill="none" stroke="#000000" stroke-width="2" stroke-linecap="round" stroke-linejoin="round" x1="60" y1="-90" x2="-60" y2="-90" />
      <line fill="none" stroke="#000000" stroke-width="2" stroke-linecap="round" stroke-linejoin="round" x1="-60" y1="-90" x2="-60" y2="90" />
      <text id="partNumber_label" x="0" y="-77" style="font-family:arial;font-weight:bold;font-size:12px;text-anchor:middle;">TPS55330RTE</text>
      <line fill="none" stroke="#000000" stroke-width="2" stroke-linecap="round" stroke-linejoin="round" x1="80" y1="-70" x2="60" y2="-70" />
      <text id="1" x="56" y="-66" transform="rotate(0,56,-66)" style="font-family:arial;font-weight:normal;font-size:9px;text-anchor:end;">SW</text>
      <line fill="none" stroke="#000000" stroke-width="2" stroke-linecap="round" stroke-linejoin="round" x1="-80" y1="-70" x2="-60" y2="-70" />
      <text id="2" x="-56" y="-66" transform="rotate(0,-56,-66)" style="font-family:arial;font-weight:normal;font-size:9px;text-anchor:start;">VIN</text>
      <line fill="none" stroke="#000000" stroke-width="2" stroke-linecap="round" stroke-linejoin="round" x1="-80" y1="-50" x2="-60" y2="-50" />
      <text id="3" x="-56" y="-46" transform="rotate(0,-56,-46)" style="font-family:arial;font-weight:normal;font-size:9px;text-anchor:start;">EN</text>
      <line fill="none" stroke="#000000" stroke-width="2" stroke-linecap="round" stroke-linejoin="round" x1="-80" y1="30" x2="-60" y2="30" />
      <text id="4" x="-56" y="34" transform="rotate(0,-56,34)" style="font-family:arial;font-weight:normal;font-size:9px;text-anchor:start;">SS</text>
      <line fill="none" stroke="#000000" stroke-width="2" stroke-linecap="round" stroke-linejoin="round" x1="-80" y1="50" x2="-60" y2="50" />
      <text id="5" x="-56" y="54" transform="rotate(0,-56,54)" style="font-family:arial;font-weight:normal;font-size:9px;text-anchor:start;">SYNC</text>
      <line fill="none" stroke="#000000" stroke-width="2" stroke-linecap="round" stroke-linejoin="round" x1="-80" y1="70" x2="-60" y2="70" />
      <text id="6" x="-56" y="74" transform="rotate(0,-56,74)" style="font-family:arial;font-weight:normal;font-size:9px;text-anchor:start;">AGND</text>
      <line fill="none" stroke="#000000" stroke-width="2" stroke-linecap="round" stroke-linejoin="round" x1="-80" y1="-10" x2="-60" y2="-10" />
      <text id="7" x="-56" y="-6" transform="rotate(0,-56,-6)" style="font-family:arial;font-weight:normal;font-size:9px;text-anchor:start;">COMP</text>
      <line fill="none" stroke="#000000" stroke-width="2" stroke-linecap="round" stroke-linejoin="round" x1="80" y1="-10" x2="60" y2="-10" />
      <text id="8" x="56" y="-6" transform="rotate(0,56,-6)" style="font-family:arial;font-weight:normal;font-size:9px;text-anchor:end;">FB</text>
      <line fill="none" stroke="#000000" stroke-width="2" stroke-linecap="round" stroke-linejoin="round" x1="-80" y1="10" x2="-60" y2="10" />
      <text id="9" x="-56" y="14" transform="rotate(0,-56,14)" style="font-family:arial;font-weight:normal;font-size:9px;text-anchor:start;">FREQ</text>
      <line fill="none" stroke="#000000" stroke-width="2" stroke-linecap="round" stroke-linejoin="round" x1="80" y1="30" x2="60" y2="30" />
      <text id="10" x="56" y="34" transform="rotate(0,56,34)" style="font-family:arial;font-weight:normal;font-size:9px;text-anchor:end;">NC</text>
      <line fill="none" stroke="#000000" stroke-width="2" stroke-linecap="round" stroke-linejoin="round" x1="80" y1="60" x2="60" y2="60" />
      <text id="11" x="56" y="64" transform="rotate(0,56,64)" style="font-family:arial;font-weight:normal;font-size:9px;text-anchor:end;">PGND</text>
      <line fill="none" stroke="#000000" stroke-width="2" stroke-linecap="round" stroke-linejoin="round" x1="80" y1="70" x2="60" y2="70" />
      <text id="12" x="56" y="74" transform="rotate(0,56,74)" style="font-family:arial;font-weight:normal;font-size:9px;text-anchor:end;">PGND</text>
      <line fill="none" stroke="#000000" stroke-width="2" stroke-linecap="round" stroke-linejoin="round" x1="80" y1="80" x2="60" y2="80" />
      <text id="13" x="56" y="84" transform="rotate(0,56,84)" style="font-family:arial;font-weight:normal;font-size:9px;text-anchor:end;">PGND</text>
      <line fill="none" stroke="#000000" stroke-width="2" stroke-linecap="round" stroke-linejoin="round" x1="80" y1="40" x2="60" y2="40" />
      <text id="14" x="56" y="44" transform="rotate(0,56,44)" style="font-family:arial;font-weight:normal;font-size:9px;text-anchor:end;">NC</text>
      <line fill="none" stroke="#000000" stroke-width="2" stroke-linecap="round" stroke-linejoin="round" x1="80" y1="-60" x2="60" y2="-60" />
      <text id="15" x="56" y="-56" transform="rotate(0,56,-56)" style="font-family:arial;font-weight:normal;font-size:9px;text-anchor:end;">SW</text>
      <line fill="none" stroke="#000000" stroke-width="2" stroke-linecap="round" stroke-linejoin="round" x1="80" y1="-50" x2="60" y2="-50" />
      <text id="16" x="56" y="-46" transform="rotate(0,56,-46)" style="font-family:arial;font-weight:normal;font-size:9px;text-anchor:end;">SW</text>
      <line fill="none" stroke="#000000" stroke-width="2" stroke-linecap="round" stroke-linejoin="round" x1="-80" y1="80" x2="-60" y2="80" />
      <text id="17" x="-56" y="84" transform="rotate(0,-56,84)" style="font-family:arial;font-weight:normal;font-size:9px;text-anchor:start;">PWPD</text>
    </g>
    <g id="WB_CURRENT_LOAD">
      <circle xmlns="" opacity="0.01" fill="#ffffff" stroke="#000000" stroke-width="0" cx="0" cy="0" r="14" />
      <path fill="none" stroke="#CC0000" stroke-width="2" stroke-linecap="round" stroke-linejoin="round" d="M-15,0c 0.1, 4.2, 1.6, 7.7, 4.4, 10.6c 2.8, 2.8, 6.4, 4.3, 10.6, 4.4c 4.3-0.1, 7.8-1.6, 10.6 -4.4c 2.9-2.9, 4.3-6.4, 4.4-10.6" />
      <path fill="none" stroke="#CC0000" stroke-width="2" stroke-linecap="round" stroke-linejoin="round" d="M15,0c -0.1,-4.2,-1.6,-7.7,-4.4,-10.6c-2.8,-2.8,-6.4,-4.3,-10.6,-4.4c-4.3,0.1 -7.8,1.6 -10.6,4.4c-2.9,2.9 -4.3,6.4 -4.4,10.6" />
      <line fill="none" stroke="#CC0000" stroke-width="2" x1="30" y1="0" x2="15" y2="0" />
      <line fill="none" stroke="#CC0000" stroke-width="2" x1="-15" y1="0" x2="-30" y2="0" />
      <line fill="none" stroke="#CC0000" stroke-width="2" stroke-linecap="round" stroke-linejoin="round" x1="3" y1="7" x2="12" y2="0" />
      <line fill="none" stroke="#CC0000" stroke-width="2" stroke-linecap="round" stroke-linejoin="round" x1="3" y1="-7" x2="12" y2="0" />
      <line fill="none" stroke="#CC0000" stroke-width="2" stroke-linecap="round" stroke-linejoin="round" x1="12" y1="0" x2="-12" y2="0" />
    </g>
    <g id="WB_PWL_VOLTAGE_SOURCE">
      <circle xmlns="" opacity="0.01" fill="#ffffff" stroke="#000000" stroke-width="0" cx="0" cy="0" r="14" />
      <circle fill-opacity="0.01" fill="#CC0000" stroke="#CC0000" stroke-width="2" cx="0" cy="0" r="14" />
      <line y1="0" x2="-20" stroke="#CC0000" x1="-30" fill="none" stroke-width="2" y2="0" />
      <line y1="0" x2="20" stroke="#CC0000" x1="30" fill="none" stroke-width="2" y2="0" />
      <polyline stroke="#CC0000" points="-7,6 4,8  " stroke-linejoin="round" fill="none" stroke-width="2" stroke-linecap="round" />
      <polyline stroke="#CC0000" points="-7,-6 4,-8  " stroke-linejoin="round" fill="none" stroke-width="2" stroke-linecap="round" />
      <polyline stroke="#CC0000" points="-20,0 -15,0  " stroke-linejoin="round" fill="none" stroke-width="2" stroke-linecap="round" />
      <polyline stroke="#CC0000" points="20,0 15,0  " stroke-linejoin="round" fill="none" stroke-width="2" stroke-linecap="round" />
      <polyline stroke="#CC0000" points="-7,-6 -7,6  " stroke-linejoin="round" fill="none" stroke-width="2" stroke-linecap="round" />
      <polyline stroke="#CC0000" points="4,-8 4,-11  " stroke-linejoin="round" fill="none" stroke-width="2" stroke-linecap="round" />
      <polyline stroke="#CC0000" points="4,8 4,11  " stroke-linejoin="round" fill="none" stroke-width="2" stroke-linecap="round" />
      <line x1="23" y1="-13" x2="23" y2="-7" stroke="#CC0000" fill="none" stroke-width="2" stroke-linecap="round" />
      <line x1="-23" y1="-13" x2="-23" y2="-7" stroke="#CC0000" fill="none" stroke-width="2" stroke-linecap="round" />
      <line x1="-26" y1="-10" x2="-20" y2="-10" stroke="#CC0000" fill="none" stroke-width="2" stroke-linecap="round" />
    </g>
    <g id="WB_PRIM_PWL_VOLTAGE_SOURCE">
      <circle xmlns="" opacity="0.01" fill="#ffffff" stroke="#000000" stroke-width="0" cx="0" cy="0" r="14" />
      <circle fill-opacity="0.01" fill="#CC0000" stroke="#CC0000" stroke-width="2" cx="0" cy="0" r="14" />
      <line x1="-30" y1="0" x2="-15" y2="0" stroke="#CC0000" fill="none" stroke-width="2" />
      <line x1="30" y1="0" x2="15" y2="0" stroke="#CC0000" fill="none" stroke-width="2" />
      <polyline stroke="#CC0000" points="0,13 0,8 -7,6 -7,0 7,-4 0,-8 0,-13" stroke-linejoin="round" fill="none" stroke-width="2" stroke-linecap="round" />
      <line x1="23" y1="-13" x2="23" y2="-7" stroke="#CC0000" fill="none" stroke-width="2" stroke-linecap="round" />
      <line x1="-23" y1="-13" x2="-23" y2="-7" stroke="#CC0000" fill="none" stroke-width="2" stroke-linecap="round" />
      <line x1="-26" y1="-10" x2="-20" y2="-10" stroke="#CC0000" fill="none" stroke-width="2" stroke-linecap="round" />
    </g>
    <g id="WB_LOAD_RESISTOR">
      <circle xmlns="" opacity="0.01" fill="#ffffff" stroke="#000000" stroke-width="0" cx="0" cy="0" r="14" />
      <polyline fill="none" stroke="#CC0000" stroke-width="2" stroke-linecap="round" stroke-linejoin="round" points="30,0 20,0 15,-6 7.5,6 0,-6 -7.5,6 -15,-6 -20,0 -30,0" />
    </g>
    <g id="WB_PRIMITIVE_BATTERY">
      <circle xmlns="" opacity="0.01" fill="#ffffff" stroke="#000000" stroke-width="0" cx="0" cy="0" r="14" />
      <line fill="none" stroke="#CC0000" stroke-width="2" x1="-8" y1="0" x2="-30" y2="0" />
      <line fill="none" stroke="#CC0000" stroke-width="2" x1="-7" y1="12" x2="-7" y2="-12" />
      <line fill="none" stroke="#CC0000" stroke-width="2" x1="4" y1="12" x2="4" y2="-12" />
      <line fill="none" stroke="#CC0000" stroke-width="2" x1="30" y1="0" x2="11" y2="0" />
      <line fill="none" stroke="#CC0000" stroke-width="2" x1="-2" y1="5" x2="-2" y2="-5" />
      <line fill="none" stroke="#CC0000" stroke-width="2" x1="-1" y1="5" x2="-1" y2="-5" />
      <line fill="none" stroke="#CC0000" stroke-width="2" x1="-14" y1="-9" x2="-14" y2="-15" />
      <line fill="none" stroke="#CC0000" stroke-width="2" x1="-11" y1="-12" x2="-17" y2="-12" />
      <line fill="none" stroke="#CC0000" stroke-width="2" x1="13" y1="-10" x2="13" y2="-15" />
      <line fill="none" stroke="#CC0000" stroke-width="2" x1="10" y1="5" x2="10" y2="-5" />
      <line fill="none" stroke="#CC0000" stroke-width="2" x1="9" y1="5" x2="9" y2="-5" />
    </g>
    <g id="WB_BATTERY">
      <circle xmlns="" opacity="0.01" fill="#ffffff" stroke="#000000" stroke-width="0" cx="0" cy="0" r="14" />
      <line fill="none" stroke="#CC0000" stroke-width="2" x1="-8" y1="0" x2="-30" y2="0" />
      <line fill="none" stroke="#CC0000" stroke-width="2" x1="-7" y1="12" x2="-7" y2="-12" />
      <line fill="none" stroke="#CC0000" stroke-width="2" x1="4" y1="12" x2="4" y2="-12" />
      <line fill="none" stroke="#CC0000" stroke-width="2" x1="30" y1="0" x2="11" y2="0" />
      <line fill="none" stroke="#CC0000" stroke-width="2" x1="-2" y1="5" x2="-2" y2="-5" />
      <line fill="none" stroke="#CC0000" stroke-width="2" x1="-1" y1="5" x2="-1" y2="-5" />
      <line fill="none" stroke="#CC0000" stroke-width="2" x1="-14" y1="-9" x2="-14" y2="-15" />
      <line fill="none" stroke="#CC0000" stroke-width="2" x1="-11" y1="-12" x2="-17" y2="-12" />
      <line fill="none" stroke="#CC0000" stroke-width="2" x1="13" y1="-10" x2="13" y2="-15" />
      <line fill="none" stroke="#CC0000" stroke-width="2" x1="10" y1="5" x2="10" y2="-5" />
      <line fill="none" stroke="#CC0000" stroke-width="2" x1="9" y1="5" x2="9" y2="-5" />
    </g>
  </defs>
  <use id="Ccomp" class="comp" xlink:href="#WB_CAPACITOR" x="400.0" y="325.0" transform="rotate(-90, 400.0, 325.0)" cap="22nF" partNo="CGA4J2C0G1H223J125AA" thermalId="0805" esr="0Ohm" manufacturer="TDK" />
  <text for="Ccomp" x="415.0" y="325.0" style="font-family:arial;font-size:13px;stroke-width:0.5;stroke:#115566;fill:#115566;">Ccomp</text>
  <text for="Ccomp" x="415.0" y="335.0" style="font-family:arial;font-size:10px;stroke-width:0.1;stroke:#CC0000;fill:#CC0000;">22nF</text>
  <text for="Ccomp" x="415.0" y="345.0" style="font-family:arial;font-size:10px;stroke-width:0.1;stroke:#CC0000;fill:#CC0000;">0Ohm</text>
  <use id="Rcomp" class="comp" xlink:href="#WB_RESISTOR" x="355.0" y="205.0" partNo="CRCW04022K94FKED" thermalId="0402" resistance="2.94kOhm" manufacturer="Vishay-Dale" />
  <text for="Rcomp" x="335.0" y="190.0" style="font-family:arial;font-size:13px;stroke-width:0.5;stroke:#115566;fill:#115566;">Rcomp</text>
  <text for="Rcomp" x="335.0" y="225.0" style="font-family:arial;font-size:10px;stroke-width:0.1;stroke:#CC0000;fill:#CC0000;">2.94kOhm</text>
  <use id="Rfbb" class="comp" xlink:href="#WB_RESISTOR" x="1175.0" y="260.0" transform="rotate(-90, 1175.0, 260.0)" partNo="RC0201FR-0710KL" thermalId="0201" resistance="10kOhm" manufacturer="Yageo" />
  <text for="Rfbb" x="1190.0" y="260.0" style="font-family:arial;font-size:13px;stroke-width:0.5;stroke:#115566;fill:#115566;">Rfbb</text>
  <text for="Rfbb" x="1190.0" y="270.0" style="font-family:arial;font-size:10px;stroke-width:0.1;stroke:#CC0000;fill:#CC0000;">10kOhm</text>
  <use id="Cin" class="comp" xlink:href="#WB_CAPACITOR" x="170.0" y="240.0" transform="rotate(-90, 170.0, 240.0)" cap="10uF" partNo="GRM31CR61C106KA88L" thermalId="1206_190" esr="3.615mOhm" manufacturer="MuRata" />
  <text for="Cin" x="185.0" y="240.0" style="font-family:arial;font-size:13px;stroke-width:0.5;stroke:#115566;fill:#115566;">Cin</text>
  <text for="Cin" x="185.0" y="250.0" style="font-family:arial;font-size:10px;stroke-width:0.1;stroke:#CC0000;fill:#CC0000;">10uF</text>
  <text for="Cin" x="185.0" y="260.0" style="font-family:arial;font-size:10px;stroke-width:0.1;stroke:#CC0000;fill:#CC0000;">3.615mOhm</text>
  <use id="Cinx" class="comp" xlink:href="#WB_CAPACITOR" x="260.0" y="240.0" transform="rotate(-90, 260.0, 240.0)" cap="100nF" partNo="GRM155R71C104KA88D" thermalId="0402" esr="1mOhm" manufacturer="MuRata" />
  <text for="Cinx" x="275.0" y="240.0" style="font-family:arial;font-size:13px;stroke-width:0.5;stroke:#115566;fill:#115566;">Cinx</text>
  <text for="Cinx" x="275.0" y="250.0" style="font-family:arial;font-size:10px;stroke-width:0.1;stroke:#CC0000;fill:#CC0000;">100nF</text>
  <text for="Cinx" x="275.0" y="260.0" style="font-family:arial;font-size:10px;stroke-width:0.1;stroke:#CC0000;fill:#CC0000;">1mOhm</text>
  <use id="L1" class="comp" xlink:href="#WB_INDUCTOR" x="840.0" y="110.0" transform="rotate(-180, 840.0, 110.0) scale(1,-1) translate(0,-220.0)" partNo="XAL5030-222MEB" thermalId="XAL5030" l="2.2uH" dcr="13.2mOhm" manufacturer="Coilcraft" />
  <text for="L1" x="820.0" y="95.0" style="font-family:arial;font-size:13px;stroke-width:0.5;stroke:#115566;fill:#115566;">L1</text>
  <text for="L1" x="820.0" y="130.0" style="font-family:arial;font-size:10px;stroke-width:0.1;stroke:#CC0000;fill:#CC0000;">2.2uH</text>
  <text for="L1" x="820.0" y="140.0" style="font-family:arial;font-size:10px;stroke-width:0.1;stroke:#CC0000;fill:#CC0000;">13.2mOhm</text>
  <use id="Coutx" class="comp" xlink:href="#WB_CAPACITOR" x="1385.0" y="260.0" transform="rotate(-90, 1385.0, 260.0)" cap="1uF" partNo="GMK212B7105KG-T" thermalId="0805" esr="1mOhm" manufacturer="Taiyo Yuden" />
  <text for="Coutx" x="1400.0" y="260.0" style="font-family:arial;font-size:13px;stroke-width:0.5;stroke:#115566;fill:#115566;">Coutx</text>
  <text for="Coutx" x="1400.0" y="270.0" style="font-family:arial;font-size:10px;stroke-width:0.1;stroke:#CC0000;fill:#CC0000;">1uF</text>
  <text for="Coutx" x="1400.0" y="280.0" style="font-family:arial;font-size:10px;stroke-width:0.1;stroke:#CC0000;fill:#CC0000;">1mOhm</text>
  <use id="Css" class="comp" xlink:href="#WB_CAPACITOR" x="530.0" y="330.0" transform="rotate(-90, 530.0, 330.0)" cap="22nF" partNo="GRM033C80G223KE01D" thermalId="0201" esr="1mOhm" manufacturer="MuRata" />
  <text for="Css" x="545.0" y="330.0" style="font-family:arial;font-size:13px;stroke-width:0.5;stroke:#115566;fill:#115566;">Css</text>
  <text for="Css" x="545.0" y="340.0" style="font-family:arial;font-size:10px;stroke-width:0.1;stroke:#CC0000;fill:#CC0000;">22nF</text>
  <text for="Css" x="545.0" y="350.0" style="font-family:arial;font-size:10px;stroke-width:0.1;stroke:#CC0000;fill:#CC0000;">1mOhm</text>
  <use id="Cout" class="comp" xlink:href="#WB_CAPACITOR" x="1265.0" y="260.0" transform="rotate(-90, 1265.0, 260.0)" cap="10uF" partNo="CGA6P3X7S1H106K250AB" thermalId="1210_280" esr="2.827mOhm" manufacturer="TDK" />
  <text for="Cout" x="1280.0" y="260.0" style="font-family:arial;font-size:13px;stroke-width:0.5;stroke:#115566;fill:#115566;">Cout</text>
  <text for="Cout" x="1280.0" y="270.0" style="font-family:arial;font-size:10px;stroke-width:0.1;stroke:#CC0000;fill:#CC0000;">10uF</text>
  <text for="Cout" x="1280.0" y="280.0" style="font-family:arial;font-size:10px;stroke-width:0.1;stroke:#CC0000;fill:#CC0000;">2.827mOhm</text>
  <text for="Cout" x="1280.0" y="290.0" style="font-family:arial;font-size:10px;stroke-width:0.1;stroke:#CC0000;fill:#CC0000;">Qty=2</text>
  <use id="GND" class="other" xlink:href="#WB_GND" x="730.0" y="400.0" />
  <use id="Ccomp2" class="comp" xlink:href="#WB_CAPACITOR" x="305.0" y="325.0" transform="rotate(-270, 305.0, 325.0)" cap="510pF" partNo="GRM1555C1H511GA01D" thermalId="0402" esr="0Ohm" manufacturer="MuRata" />
  <text for="Ccomp2" x="320.0" y="325.0" style="font-family:arial;font-size:13px;stroke-width:0.5;stroke:#115566;fill:#115566;">Ccomp2</text>
  <text for="Ccomp2" x="320.0" y="335.0" style="font-family:arial;font-size:10px;stroke-width:0.1;stroke:#CC0000;fill:#CC0000;">510pF</text>
  <text for="Ccomp2" x="320.0" y="345.0" style="font-family:arial;font-size:10px;stroke-width:0.1;stroke:#CC0000;fill:#CC0000;">0Ohm</text>
  <use id="Rt" class="comp" xlink:href="#WB_RESISTOR" x="475.0" y="330.0" transform="rotate(-90, 475.0, 330.0)" partNo="CRCW040238K3FKED" thermalId="0402" resistance="38.3kOhm" manufacturer="Vishay-Dale" />
  <text for="Rt" x="490.0" y="330.0" style="font-family:arial;font-size:13px;stroke-width:0.5;stroke:#115566;fill:#115566;">Rt</text>
  <text for="Rt" x="490.0" y="340.0" style="font-family:arial;font-size:10px;stroke-width:0.1;stroke:#CC0000;fill:#CC0000;">38.3kOhm</text>
  <use id="D1" class="comp" xlink:href="#WB_DIODE" x="1100.0" y="110.0" transform="rotate(-180, 1100.0, 110.0)" vfatio="560mV" partNo="PDS760-13" io="7A" thermalId="PowerDI5" vrrm="" manufacturer="Diodes Inc." />
  <text for="D1" x="1080.0" y="95.0" style="font-family:arial;font-size:13px;stroke-width:0.5;stroke:#115566;fill:#115566;">D1</text>
  <text for="D1" x="1080.0" y="130.0" style="font-family:arial;font-size:10px;stroke-width:0.1;stroke:#CC0000;fill:#CC0000;">560mV</text>
  <text for="D1" x="1080.0" y="140.0" style="font-family:arial;font-size:10px;stroke-width:0.1;stroke:#CC0000;fill:#CC0000;">7A</text>
  <use id="U1" class="comp" xlink:href="#WB_TPS55330RTE" x="730.0" y="215.0" />
  <text for="U1" x="710.0" y="215.0" style="font-family:arial;font-size:13px;stroke-width:0.5;stroke:#115566;fill:#115566;">U1</text>
  <use id="Rfbt" class="comp" xlink:href="#WB_RESISTOR" x="1175.0" y="150.0" transform="rotate(-90, 1175.0, 150.0)" partNo="CRCW0402127KFKED" thermalId="0402" resistance="127kOhm" manufacturer="Vishay-Dale" />
  <text for="Rfbt" x="1190.0" y="150.0" style="font-family:arial;font-size:13px;stroke-width:0.5;stroke:#115566;fill:#115566;">Rfbt</text>
  <text for="Rfbt" x="1190.0" y="160.0" style="font-family:arial;font-size:10px;stroke-width:0.1;stroke:#CC0000;fill:#CC0000;">127kOhm</text>
  <use id="Vin" class="other" xlink:href="#WB_BATTERY" x="100.0" y="190.0" transform="rotate(-270, 100.0, 190.0)" />
  <text for="Vin" x="115.0" y="190.0" style="font-family:arial;font-size:13px;stroke-width:0.5;stroke:#CC0000;fill:#CC0000;">Vin</text>
  <use id="Iout" class="other" xlink:href="#WB_CURRENT_LOAD" x="1490.0" y="250.0" transform="rotate(-270, 1490.0, 250.0)" />
  <text for="Iout" x="1505.0" y="250.0" style="font-family:arial;font-size:13px;stroke-width:0.5;stroke:#CC0000;fill:#CC0000;">Iout</text>
  <line x1="1385.0" y1="390.0" x2="1385.0" y2="290.0" stroke="#000000" stroke-width="2" fill="none" />
  <line x1="1385.0" y1="230.0" x2="1385.0" y2="110.0" stroke="#000000" stroke-width="2" fill="none" />
  <line x1="810.0" y1="165.0" x2="810.0" y2="145.0" stroke="#000000" stroke-width="2" fill="none" />
  <line x1="1175.0" y1="120.0" x2="1175.0" y2="110.0" stroke="#000000" stroke-width="2" fill="none" />
  <line x1="650.0" y1="285.0" x2="650.0" y2="390.0" stroke="#000000" stroke-width="2" fill="none" />
  <line x1="170.0" y1="210.0" x2="170.0" y2="110.0" stroke="#000000" stroke-width="2" fill="none" />
  <line x1="475.0" y1="225.0" x2="475.0" y2="300.0" stroke="#000000" stroke-width="2" fill="none" />
  <line x1="1175.0" y1="180.0" x2="1175.0" y2="230.0" stroke="#000000" stroke-width="2" fill="none" />
  <line x1="530.0" y1="360.0" x2="530.0" y2="390.0" stroke="#000000" stroke-width="2" fill="none" />
  <line x1="530.0" y1="245.0" x2="530.0" y2="300.0" stroke="#000000" stroke-width="2" fill="none" />
  <line x1="475.0" y1="360.0" x2="475.0" y2="390.0" stroke="#000000" stroke-width="2" fill="none" />
  <line x1="100.0" y1="390.0" x2="1490.0" y2="390.0" stroke="#000000" stroke-width="2" fill="none" />
  <line x1="305.0" y1="295.0" x2="305.0" y2="205.0" stroke="#000000" stroke-width="2" fill="none" />
  <line x1="1175.0" y1="290.0" x2="1175.0" y2="390.0" stroke="#000000" stroke-width="2" fill="none" />
  <line x1="305.0" y1="355.0" x2="305.0" y2="390.0" stroke="#000000" stroke-width="2" fill="none" />
  <line x1="650.0" y1="245.0" x2="530.0" y2="245.0" stroke="#000000" stroke-width="2" fill="none" />
  <line x1="170.0" y1="270.0" x2="170.0" y2="390.0" stroke="#000000" stroke-width="2" fill="none" />
  <line x1="650.0" y1="225.0" x2="475.0" y2="225.0" stroke="#000000" stroke-width="2" fill="none" />
  <line x1="810.0" y1="275.0" x2="810.0" y2="390.0" stroke="#000000" stroke-width="2" fill="none" />
  <line x1="810.0" y1="205.0" x2="1175.0" y2="205.0" stroke="#000000" stroke-width="2" fill="none" />
  <line x1="650.0" y1="165.0" x2="650.0" y2="110.0" stroke="#000000" stroke-width="2" fill="none" />
  <line x1="400.0" y1="295.0" x2="400.0" y2="205.0" stroke="#000000" stroke-width="2" fill="none" />
  <line x1="325.0" y1="205.0" x2="305.0" y2="205.0" stroke="#000000" stroke-width="2" fill="none" />
  <line x1="1265.0" y1="290.0" x2="1265.0" y2="390.0" stroke="#000000" stroke-width="2" fill="none" />
  <line x1="260.0" y1="210.0" x2="260.0" y2="110.0" stroke="#000000" stroke-width="2" fill="none" />
  <line x1="985.0" y1="145.0" x2="985.0" y2="110.0" stroke="#000000" stroke-width="2" fill="none" />
  <line x1="400.0" y1="355.0" x2="400.0" y2="390.0" stroke="#000000" stroke-width="2" fill="none" />
  <line x1="650.0" y1="205.0" x2="385.0" y2="205.0" stroke="#000000" stroke-width="2" fill="none" />
  <line x1="260.0" y1="270.0" x2="260.0" y2="390.0" stroke="#000000" stroke-width="2" fill="none" />
  <line x1="870.0" y1="110.0" x2="1070.0" y2="110.0" stroke="#000000" stroke-width="2" fill="none" />
  <line x1="810.0" y1="145.0" x2="985.0" y2="145.0" stroke="#000000" stroke-width="2" fill="none" />
  <line x1="1130.0" y1="110.0" x2="1490.0" y2="110.0" stroke="#000000" stroke-width="2" fill="none" />
  <line x1="1265.0" y1="230.0" x2="1265.0" y2="110.0" stroke="#000000" stroke-width="2" fill="none" />
  <line x1="100.0" y1="110.0" x2="810.0" y2="110.0" stroke="#000000" stroke-width="2" fill="none" />
  <line x1="100.0" y1="160.0" x2="100.0" y2="110.0" stroke="#000000" stroke-width="2" fill="none" />
  <line x1="100.0" y1="390.0" x2="100.0" y2="220.0" stroke="#000000" stroke-width="2" fill="none" />
  <line x1="1490.0" y1="390.0" x2="1490.0" y2="280.0" stroke="#000000" stroke-width="2" fill="none" />
  <line x1="1490.0" y1="220.0" x2="1490.0" y2="110.0" stroke="#000000" stroke-width="2" fill="none" />
  <circle cx="1175.0" cy="205.0" r="5" stroke="#000000" stroke-width="0" fill="#000000" />
  <circle cx="1385.0" cy="390.0" r="5" stroke="#000000" stroke-width="0" fill="#000000" />
  <circle cx="650.0" cy="390.0" r="5" stroke="#000000" stroke-width="0" fill="#000000" />
  <circle cx="530.0" cy="390.0" r="5" stroke="#000000" stroke-width="0" fill="#000000" />
  <circle cx="475.0" cy="390.0" r="5" stroke="#000000" stroke-width="0" fill="#000000" />
  <circle cx="1175.0" cy="390.0" r="5" stroke="#000000" stroke-width="0" fill="#000000" />
  <circle cx="305.0" cy="390.0" r="5" stroke="#000000" stroke-width="0" fill="#000000" />
  <circle cx="170.0" cy="390.0" r="5" stroke="#000000" stroke-width="0" fill="#000000" />
  <circle cx="810.0" cy="390.0" r="5" stroke="#000000" stroke-width="0" fill="#000000" />
  <circle cx="1265.0" cy="390.0" r="5" stroke="#000000" stroke-width="0" fill="#000000" />
  <circle cx="400.0" cy="390.0" r="5" stroke="#000000" stroke-width="0" fill="#000000" />
  <circle cx="260.0" cy="390.0" r="5" stroke="#000000" stroke-width="0" fill="#000000" />
  <circle cx="400.0" cy="205.0" r="5" stroke="#000000" stroke-width="0" fill="#000000" />
  <circle cx="985.0" cy="110.0" r="5" stroke="#000000" stroke-width="0" fill="#000000" />
  <circle cx="1385.0" cy="110.0" r="5" stroke="#000000" stroke-width="0" fill="#000000" />
  <circle cx="1175.0" cy="110.0" r="5" stroke="#000000" stroke-width="0" fill="#000000" />
  <circle cx="1265.0" cy="110.0" r="5" stroke="#000000" stroke-width="0" fill="#000000" />
  <circle cx="170.0" cy="110.0" r="5" stroke="#000000" stroke-width="0" fill="#000000" />
  <circle cx="650.0" cy="110.0" r="5" stroke="#000000" stroke-width="0" fill="#000000" />
  <circle cx="260.0" cy="110.0" r="5" stroke="#000000" stroke-width="0" fill="#000000" />
  <circle cx="730.0" cy="390.0" r="5" stroke="#000000" stroke-width="0" fill="#000000" />
</svg>

