<?xml version="1.0" encoding="UTF-8"?>
<!DOCTYPE svg PUBLIC "-//W3C//DTD SVG 1.1//EN" "http://www.w3.org/Graphics/SVG/1.1/DTD/svg11.dtd">

<svg xmlns="http://www.w3.org/2000/svg" xmlns:xlink="http://www.w3.org/1999/xlink" xmlns:xs="http://www.w3.org/2001/XMLSchema" xmlns:wb="http://www.ti.com/webench" version="1.1" width="100%" height="100%" viewBox="0 0 1380.0 770.0" preserveAspectRatio="xMidYMid meet">
  <defs>
    <g id="WB_CONTINUATION">
      <circle xmlns="" opacity="0.01" fill="#ffffff" stroke="#000000" stroke-width="0" cx="0" cy="0" r="14" />
      <line fill="none" stroke="#CC0000" stroke-width="2" x1="0" y1="10" x2="0" y2="-10" />
      <line fill="none" stroke="#CC0000" stroke-width="2" x1="-10" y1="-10" x2="10" y2="-10" />
    </g>
    <g id="WB_CURRENT_PROBE">
      <circle xmlns="" opacity="0.01" fill="#ffffff" stroke="#000000" stroke-width="0" cx="0" cy="0" r="14" />
      <line stroke="#CC0000" stroke-width="2" stroke-linecap="square" stroke-linejoin="round" x1="-16" y1="0" x2="-10" y2="0" />
      <polyline stroke="#CC0000" stroke-width="2" stroke-linecap="square" stroke-linejoin="round" points="6,0 3,-3.5 3,3.5 6,0 -6,0 " />
      <line stroke="#CC0000" stroke-width="2" stroke-linecap="square" stroke-linejoin="round" x1="10" y1="0" x2="16" y2="0" />
      <rect stroke-width="1" x="-9.5" y="-7" fill="none" stroke="#CC0000" width="19" height="14" />
    </g>
    <g id="WB_VOLTAGE_PROBE">
      <circle xmlns="" opacity="0.01" fill="#ffffff" stroke="#000000" stroke-width="0" cx="0" cy="0" r="14" />
      <rect stroke-width="1" width="20" stroke="#CC0000" x="-10" height="19.5" y="-30" fill="#CC0000" fill-opacity="0.01" />
      <polyline stroke="#CC0000" points="7,-27 4,-22 3,-26 0,-18 -1,-22 -5,-14  " stroke-linejoin="round" fill="none" stroke-width="2" stroke-linecap="round" />
      <line y1="0" x2="0" stroke="#CC0000" x1="0" fill="none" stroke-width="2" y2="-10" />
    </g>
    <g id="WB_CAPACITOR">
      <circle xmlns="" opacity="0.01" fill="#ffffff" stroke="#000000" stroke-width="0" cx="0" cy="0" r="14" />
      <line y1="0" x2="20" stroke="#115566" x1="30" fill="none" stroke-width="2" y2="0" />
      <line y1="0" x2="-20" stroke="#115566" x1="-30" fill="none" stroke-width="2" y2="0" />
      <polyline stroke="#115566" points="3,12 3,-12  " stroke-linejoin="round" fill="none" stroke-width="2" stroke-linecap="round" />
      <polyline stroke="#115566" points="-20,0 -3,0  " stroke-linejoin="round" fill="none" stroke-width="2" stroke-linecap="round" />
      <polyline stroke="#115566" points="3,0 20,0  " stroke-linejoin="round" fill="none" stroke-width="2" stroke-linecap="round" />
      <polyline stroke="#115566" points="-3,12 -3,-12  " stroke-linejoin="round" fill="none" stroke-width="2" stroke-linecap="round" />
    </g>
    <g id="WB_RESISTOR">
      <circle xmlns="" opacity="0.01" fill="#ffffff" stroke="#000000" stroke-width="0" cx="0" cy="0" r="14" />
      <polyline fill="none" stroke="#115566" stroke-width="2" stroke-linecap="round" stroke-linejoin="round" points="30,0 20,0 15,-6 7.5,6 0,-6 -7.5,6 -15,-6 -20,0 -30,0" />
    </g>
    <g id="WB_BLOCK_IO">
      <circle xmlns="" opacity="0.01" fill="#ffffff" stroke="#000000" stroke-width="0" cx="0" cy="0" r="14" />
      <line stroke="#CC0000" fill="none" stroke-width="2" x1="-5" y1="0" x2="5" y2="0" />
    </g>
    <g id="WB_GND">
      <circle xmlns="" opacity="0.01" fill="#ffffff" stroke="#000000" stroke-width="0" cx="0" cy="0" r="14" />
      <line fill="none" stroke="black" stroke-width="2" x1="0" y1="-10" x2="0" y2="0" />
      <line fill="none" stroke="black" stroke-width="2" x1="-13" y1="0" x2="13" y2="0" />
      <line fill="none" stroke="black" stroke-width="2" x1="-9" y1="4" x2="9" y2="4" />
      <line fill="none" stroke="black" stroke-width="2" x1="-3" y1="8" x2="3" y2="8" />
    </g>
    <g id="WB_DIODE_SCHOTTKY">
      <circle xmlns="" opacity="0.01" fill="#ffffff" stroke="#000000" stroke-width="0" cx="0" cy="0" r="14" />
      <line x1="-30" y1="0" x2="30" y2="0" stroke="#115566" fill="none" stroke-width="2" />
      <polygon stroke="#115566" points="8,-10 -8,0 8,10" stroke-linejoin="round" fill="#115566" stroke-width="2" stroke-linecap="round" />
      <polyline stroke="#115566" points="-11,-8 -11,-10 -8,-10 -8,10 -5,10 -5,8" stroke-linejoin="round" fill="none" stroke-width="2" stroke-linecap="round" />
    </g>
    <g id="WB_TPS40210DGQ">
      <circle xmlns="" opacity="0.01" fill="#ffffff" stroke="#000000" stroke-width="0" cx="0" cy="0" r="14" />
      <line fill="none" stroke="#000000" stroke-width="2" stroke-linecap="round" stroke-linejoin="round" x1="-60" y1="70" x2="60" y2="70" />
      <line fill="none" stroke="#000000" stroke-width="2" stroke-linecap="round" stroke-linejoin="round" x1="60" y1="70" x2="60" y2="-70" />
      <line fill="none" stroke="#000000" stroke-width="2" stroke-linecap="round" stroke-linejoin="round" x1="60" y1="-70" x2="-60" y2="-70" />
      <line fill="none" stroke="#000000" stroke-width="2" stroke-linecap="round" stroke-linejoin="round" x1="-60" y1="-70" x2="-60" y2="70" />
      <text id="partNumber_label" x="0" y="-57" style="font-family:arial;font-weight:bold;font-size:12px;text-anchor:middle;">TPS40210DGQ</text>
      <line fill="none" stroke="#000000" stroke-width="2" stroke-linecap="round" stroke-linejoin="round" x1="-80" y1="50" x2="-60" y2="50" />
      <text id="1" x="-56" y="54" transform="rotate(0,-56,54)" style="font-family:arial;font-weight:normal;font-size:9px;text-anchor:start;">RC</text>
      <line fill="none" stroke="#000000" stroke-width="2" stroke-linecap="round" stroke-linejoin="round" x1="-80" y1="30" x2="-60" y2="30" />
      <text id="2" x="-56" y="34" transform="rotate(0,-56,34)" style="font-family:arial;font-weight:normal;font-size:9px;text-anchor:start;">SS</text>
      <line fill="none" stroke="#000000" stroke-width="2" stroke-linecap="round" stroke-linejoin="round" x1="-80" y1="-30" x2="-60" y2="-30" />
      <text id="3" x="-56" y="-26" transform="rotate(0,-56,-26)" style="font-family:arial;font-weight:normal;font-size:9px;text-anchor:start;">DIS_EN_N</text>
      <line fill="none" stroke="#000000" stroke-width="2" stroke-linecap="round" stroke-linejoin="round" x1="-80" y1="-10" x2="-60" y2="-10" />
      <text id="4" x="-56" y="-6" transform="rotate(0,-56,-6)" style="font-family:arial;font-weight:normal;font-size:9px;text-anchor:start;">COMP</text>
      <line fill="none" stroke="#000000" stroke-width="2" stroke-linecap="round" stroke-linejoin="round" x1="-80" y1="10" x2="-60" y2="10" />
      <text id="5" x="-56" y="14" transform="rotate(0,-56,14)" style="font-family:arial;font-weight:normal;font-size:9px;text-anchor:start;">FB</text>
      <line fill="none" stroke="#000000" stroke-width="2" stroke-linecap="round" stroke-linejoin="round" x1="80" y1="40" x2="60" y2="40" />
      <text id="6" x="56" y="44" transform="rotate(0,56,44)" style="font-family:arial;font-weight:normal;font-size:9px;text-anchor:end;">GND</text>
      <line fill="none" stroke="#000000" stroke-width="2" stroke-linecap="round" stroke-linejoin="round" x1="80" y1="10" x2="60" y2="10" />
      <text id="7" x="56" y="14" transform="rotate(0,56,14)" style="font-family:arial;font-weight:normal;font-size:9px;text-anchor:end;">ISNS</text>
      <line fill="none" stroke="#000000" stroke-width="2" stroke-linecap="round" stroke-linejoin="round" x1="80" y1="-20" x2="60" y2="-20" />
      <text id="8" x="56" y="-16" transform="rotate(0,56,-16)" style="font-family:arial;font-weight:normal;font-size:9px;text-anchor:end;">GDRV</text>
      <line fill="none" stroke="#000000" stroke-width="2" stroke-linecap="round" stroke-linejoin="round" x1="80" y1="-50" x2="60" y2="-50" />
      <text id="9" x="56" y="-46" transform="rotate(0,56,-46)" style="font-family:arial;font-weight:normal;font-size:9px;text-anchor:end;">BP</text>
      <line fill="none" stroke="#000000" stroke-width="2" stroke-linecap="round" stroke-linejoin="round" x1="-80" y1="-50" x2="-60" y2="-50" />
      <text id="10" x="-56" y="-46" transform="rotate(0,-56,-46)" style="font-family:arial;font-weight:normal;font-size:9px;text-anchor:start;">VDD</text>
      <line fill="none" stroke="#000000" stroke-width="2" stroke-linecap="round" stroke-linejoin="round" x1="80" y1="50" x2="60" y2="50" />
      <text id="11" x="56" y="54" transform="rotate(0,56,54)" style="font-family:arial;font-weight:normal;font-size:9px;text-anchor:end;">PWPD</text>
    </g>
    <g id="WB_CAP_POLARIZED">
      <circle xmlns="" opacity="0.01" fill="#ffffff" stroke="#000000" stroke-width="0" cx="0" cy="0" r="14" />
      <path fill="none" stroke="#115566" stroke-width="2" stroke-linecap="round" stroke-linejoin="round" d="M-6.5,12c0.2,0,1.1 -1,2.5 -3c1.5 -2,2.3 -5,2.5 -9c-0.2 -4 -1 -7 -2.5 -9c-1.4 -2 -2.3 -3 -2.5 -3" />
      <line fill="none" stroke="#115566" stroke-width="2" x1="4" y1="13" x2="4" y2="-13" />
      <line fill="none" stroke="#115566" stroke-width="2" x1="-30" y1="0" x2="-2" y2="0" />
      <line fill="none" stroke="#115566" stroke-width="2" x1="4" y1="0" x2="30" y2="0" />
      <line fill="none" stroke="#115566" stroke-width="2" x1="14" y1="10" x2="14" y2="6" />
      <line fill="none" stroke="#115566" stroke-width="2" x1="12" y1="8" x2="16" y2="8" />
    </g>
    <g id="WB_INDUCTOR_COUPLED">
      <circle xmlns="" opacity="0.01" fill="#ffffff" stroke="#000000" stroke-width="0" cx="0" cy="0" r="14" />
      <path fill="none" stroke="#115566" stroke-width="2" stroke-linecap="round" stroke-linejoin="round" d="M-10,-19 c-0,0.6-0.2,1.8-0.6,3.3c-0.5,2.4-2,3.7-4.4,4c-2.4-0.3-3.8-1.6-4.3-4c-0.6-2.3-0.8-3.6-0.7-4H-30" />
      <path fill="none" stroke="#115566" stroke-width="2" stroke-linecap="round" stroke-linejoin="round" d="M0,-19 c0,0.6-0.2,1.8-0.6,3.3c-0.5,2.4-2,3.7-4.4,4c-2.4-0.3-3.8-1.6-4.3-4c-0.4-1.5-0.6-2.7-0.7-3.3" />
      <path fill="none" stroke="#115566" stroke-width="2" stroke-linecap="round" stroke-linejoin="round" d="M30,-20H20 c0.1,0.4-0.1,1.7-0.6,4c-0.5,2.4-2,3.7-4.4,4c-2.4-0.3-3.8-1.6-4.3-4c-0.4-1.5-0.6-2.7-0.7-3.3" />
      <path fill="none" stroke="#115566" stroke-width="2" stroke-linecap="round" stroke-linejoin="round" d="M10,-19 c0,0.6-0.2,1.8-0.6,3.3c-0.5,2.4-2,3.7-4.4,4c-2.4-0.3-3.9-1.6-4.4-4c-0.3-1.5-0.5-2.7-0.6-3.3" />
      <path fill="none" stroke="#115566" stroke-width="2" stroke-linecap="round" stroke-linejoin="round" d="M10,-19 c0.1-0.4,0.1-0.601,0-0.7" />
      <path fill="none" stroke="#115566" stroke-width="2" stroke-linecap="round" stroke-linejoin="round" d="M0,-20 c0.1,0.1,0.1,0.3,0,0.7" />
      <path fill="none" stroke="#115566" stroke-width="2" stroke-linecap="round" stroke-linejoin="round" d="M-10,-19 c0.1-0.4,0.1-0.601,0-0.7" />
      <line fill="none" stroke="#115566" stroke-width="2" x1="-27" y1="-5" x2="27" y2="-5" />
      <line fill="none" stroke="#115566" stroke-width="2" x1="-27" y1="5" x2="27" y2="5" />
      <path fill="none" stroke="#115566" stroke-width="2" stroke-linecap="round" stroke-linejoin="round" d="M-10,19 c0-0.6-0.2-1.8-0.6-3.3c-0.5-2.4-2-3.7-4.4-4c-2.4,0.3-3.8,1.6-4.3,4c-0.6,2.3-0.8,3.6-0.7,4H-30" />
      <path fill="none" stroke="#115566" stroke-width="2" stroke-linecap="round" stroke-linejoin="round" d="M10,19 c0-0.6-0.2-1.8-0.6-3.3c-0.5-2.4-2-3.7-4.4-4c-2.4,0.3-3.9,1.6-4.4,4c-0.3,1.5-0.5,2.7-0.6,3.3" />
      <path fill="none" stroke="#115566" stroke-width="2" stroke-linecap="round" stroke-linejoin="round" d="M0,19 c0-0.6-0.2-1.8-0.6-3.3c-0.5-2.4-2-3.7-4.4-4c-2.4,0.3-3.8,1.6-4.3,4c-0.4,1.5-0.6,2.7-0.7,3.3" />
      <path fill="none" stroke="#115566" stroke-width="2" stroke-linecap="round" stroke-linejoin="round" d="M30,19H20 c0.1-0.4-0.1-1.7-0.6-4c-0.5-2.4-2-3.7-4.4-4c-2.4,0.3-3.8,1.6-4.3,4c-0.4,1.5-0.6,2.7-0.7,3.3" />
      <path fill="none" stroke="#115566" stroke-width="2" stroke-linecap="round" stroke-linejoin="round" d="M-10,19 c0.1,0.4,0.1,0.601,0,0.7" />
      <path fill="none" stroke="#115566" stroke-width="2" stroke-linecap="round" stroke-linejoin="round" d="M0,20 c0.1-0.1,0.1-0.3,0-0.7" />
      <path fill="none" stroke="#115566" stroke-width="2" stroke-linecap="round" stroke-linejoin="round" d="M10,19 c0.1,0.4,0.1,0.601,0,0.7" />
      <circle fill="none" stroke="#115566" stroke-width="2" cx="23" cy="-25" r="1" />
      <circle fill="none" stroke="#115566" stroke-width="2" cx="23" cy="25" r="1" />
    </g>
    <g id="WB_N_MOSFET">
      <circle xmlns="" opacity="0.01" fill="#ffffff" stroke="#000000" stroke-width="0" cx="0" cy="0" r="14" />
      <line y1="0" x2="-5" stroke="#115566" x1="-15" fill="none" stroke-width="2" y2="0" />
      <line y1="-30" x2="15" stroke="#115566" x1="15" fill="none" stroke-width="2" y2="-20" />
      <line y1="30" x2="15" stroke="#115566" x1="15" fill="none" stroke-width="2" y2="20" />
      <polyline stroke="#115566" points="4,-10 4,10  " stroke-linejoin="round" fill="none" stroke-width="2" stroke-linecap="round" />
      <polyline stroke="#115566" points="15,-10 15,-8  " stroke-linejoin="round" fill="none" stroke-width="2" stroke-linecap="round" />
      <polyline stroke="#115566" points="15,-8 5,-8  " stroke-linejoin="round" fill="none" stroke-width="2" stroke-linecap="round" />
      <polyline stroke="#115566" points="11,0 15,0  " stroke-linejoin="round" fill="none" stroke-width="2" stroke-linecap="round" />
      <polyline stroke="#115566" points="15,0 15,10  " stroke-linejoin="round" fill="none" stroke-width="2" stroke-linecap="round" />
      <polyline stroke="#115566" points="5,8 14,8  " stroke-linejoin="round" fill="none" stroke-width="2" stroke-linecap="round" />
      <polyline stroke="#115566" points="15,-10 15,-8  " stroke-linejoin="round" fill="none" stroke-width="2" stroke-linecap="round" />
      <polyline stroke="#115566" points="15,-8 4,-8  " stroke-linejoin="round" fill="none" stroke-width="2" stroke-linecap="round" />
      <polyline stroke="#115566" points="4,-10 4,10  " stroke-linejoin="round" fill="none" stroke-width="2" stroke-linecap="round" />
      <polyline stroke="#115566" points="4,8 15,8  " stroke-linejoin="round" fill="none" stroke-width="2" stroke-linecap="round" />
      <polyline stroke="#115566" points="4,0 9,-5  " stroke-linejoin="round" fill="none" stroke-width="2" stroke-linecap="round" />
      <polyline stroke="#115566" points="9,-5 9,5  " stroke-linejoin="round" fill="none" stroke-width="2" stroke-linecap="round" />
      <polyline stroke="#115566" points="9,5 4,0  " stroke-linejoin="round" fill="none" stroke-width="2" stroke-linecap="round" />
      <polyline stroke="#115566" points="9,0 15,0  " stroke-linejoin="round" fill="none" stroke-width="2" stroke-linecap="round" />
      <polyline stroke="#115566" points="15,0 15,10  " stroke-linejoin="round" fill="none" stroke-width="2" stroke-linecap="round" />
      <polyline stroke="#115566" points="-5,0 0,0  " stroke-linejoin="round" fill="none" stroke-width="2" stroke-linecap="round" />
      <polyline stroke="#115566" points="0,10 0,-10  " stroke-linejoin="round" fill="none" stroke-width="2" stroke-linecap="round" />
      <polyline stroke="#115566" points="15,-20 15,-10  " stroke-linejoin="round" fill="none" stroke-width="2" stroke-linecap="round" />
      <polyline stroke="#115566" points="15,10 15,20  " stroke-linejoin="round" fill="none" stroke-width="2" stroke-linecap="round" />
    </g>
    <g id="WB_SOURCE_RESISTOR">
      <circle xmlns="" opacity="0.01" fill="#ffffff" stroke="#000000" stroke-width="0" cx="0" cy="0" r="14" />
      <polyline fill="none" stroke="#CC0000" stroke-width="2" stroke-linecap="round" stroke-linejoin="round" points="30,0 20,0 15,-6 7.5,6 0,-6 -7.5,6 -15,-6 -20,0 -30,0" />
    </g>
    <g id="WB_PRIMITIVE_BATTERY">
      <circle xmlns="" opacity="0.01" fill="#ffffff" stroke="#000000" stroke-width="0" cx="0" cy="0" r="14" />
      <line fill="none" stroke="#CC0000" stroke-width="2" x1="-8" y1="0" x2="-30" y2="0" />
      <line fill="none" stroke="#CC0000" stroke-width="2" x1="-7" y1="12" x2="-7" y2="-12" />
      <line fill="none" stroke="#CC0000" stroke-width="2" x1="4" y1="12" x2="4" y2="-12" />
      <line fill="none" stroke="#CC0000" stroke-width="2" x1="30" y1="0" x2="11" y2="0" />
      <line fill="none" stroke="#CC0000" stroke-width="2" x1="-2" y1="5" x2="-2" y2="-5" />
      <line fill="none" stroke="#CC0000" stroke-width="2" x1="-1" y1="5" x2="-1" y2="-5" />
      <line fill="none" stroke="#CC0000" stroke-width="2" x1="-14" y1="-9" x2="-14" y2="-15" />
      <line fill="none" stroke="#CC0000" stroke-width="2" x1="-11" y1="-12" x2="-17" y2="-12" />
      <line fill="none" stroke="#CC0000" stroke-width="2" x1="13" y1="-10" x2="13" y2="-15" />
      <line fill="none" stroke="#CC0000" stroke-width="2" x1="10" y1="5" x2="10" y2="-5" />
      <line fill="none" stroke="#CC0000" stroke-width="2" x1="9" y1="5" x2="9" y2="-5" />
    </g>
    <g id="WB_CURRENT_LOAD">
      <circle xmlns="" opacity="0.01" fill="#ffffff" stroke="#000000" stroke-width="0" cx="0" cy="0" r="14" />
      <path fill="none" stroke="#CC0000" stroke-width="2" stroke-linecap="round" stroke-linejoin="round" d="M-15,0c 0.1, 4.2, 1.6, 7.7, 4.4, 10.6c 2.8, 2.8, 6.4, 4.3, 10.6, 4.4c 4.3-0.1, 7.8-1.6, 10.6 -4.4c 2.9-2.9, 4.3-6.4, 4.4-10.6" />
      <path fill="none" stroke="#CC0000" stroke-width="2" stroke-linecap="round" stroke-linejoin="round" d="M15,0c -0.1,-4.2,-1.6,-7.7,-4.4,-10.6c-2.8,-2.8,-6.4,-4.3,-10.6,-4.4c-4.3,0.1 -7.8,1.6 -10.6,4.4c-2.9,2.9 -4.3,6.4 -4.4,10.6" />
      <line fill="none" stroke="#CC0000" stroke-width="2" x1="30" y1="0" x2="15" y2="0" />
      <line fill="none" stroke="#CC0000" stroke-width="2" x1="-15" y1="0" x2="-30" y2="0" />
      <line fill="none" stroke="#CC0000" stroke-width="2" stroke-linecap="round" stroke-linejoin="round" x1="3" y1="7" x2="12" y2="0" />
      <line fill="none" stroke="#CC0000" stroke-width="2" stroke-linecap="round" stroke-linejoin="round" x1="3" y1="-7" x2="12" y2="0" />
      <line fill="none" stroke="#CC0000" stroke-width="2" stroke-linecap="round" stroke-linejoin="round" x1="12" y1="0" x2="-12" y2="0" />
    </g>
    <g id="WB_BATTERY">
      <circle xmlns="" opacity="0.01" fill="#ffffff" stroke="#000000" stroke-width="0" cx="0" cy="0" r="14" />
      <line fill="none" stroke="#CC0000" stroke-width="2" x1="-8" y1="0" x2="-30" y2="0" />
      <line fill="none" stroke="#CC0000" stroke-width="2" x1="-7" y1="12" x2="-7" y2="-12" />
      <line fill="none" stroke="#CC0000" stroke-width="2" x1="4" y1="12" x2="4" y2="-12" />
      <line fill="none" stroke="#CC0000" stroke-width="2" x1="30" y1="0" x2="11" y2="0" />
      <line fill="none" stroke="#CC0000" stroke-width="2" x1="-2" y1="5" x2="-2" y2="-5" />
      <line fill="none" stroke="#CC0000" stroke-width="2" x1="-1" y1="5" x2="-1" y2="-5" />
      <line fill="none" stroke="#CC0000" stroke-width="2" x1="-14" y1="-9" x2="-14" y2="-15" />
      <line fill="none" stroke="#CC0000" stroke-width="2" x1="-11" y1="-12" x2="-17" y2="-12" />
      <line fill="none" stroke="#CC0000" stroke-width="2" x1="13" y1="-10" x2="13" y2="-15" />
      <line fill="none" stroke="#CC0000" stroke-width="2" x1="10" y1="5" x2="10" y2="-5" />
      <line fill="none" stroke="#CC0000" stroke-width="2" x1="9" y1="5" x2="9" y2="-5" />
    </g>
  </defs>
  <use id="Cin" class="comp" xlink:href="#WB_CAPACITOR" x="185.0" y="525.0" transform="rotate(-90, 185.0, 525.0)" cap="9.167uF" partNo="CUSTOM" thermalId="CUSTOM" esr="1uOhm" manufacturer="CUSTOM" />
  <text for="Cin" x="200.0" y="525.0" style="font-family:arial;font-size:13px;stroke-width:0.5;stroke:#115566;fill:#115566;">Cin</text>
  <text for="Cin" x="200.0" y="535.0" style="font-family:arial;font-size:10px;stroke-width:0.1;stroke:#CC0000;fill:#CC0000;">9.167uF</text>
  <text for="Cin" x="200.0" y="545.0" style="font-family:arial;font-size:10px;stroke-width:0.1;stroke:#CC0000;fill:#CC0000;">1uOhm</text>
  <use id="Rrc" class="comp" xlink:href="#WB_RESISTOR" x="270.0" y="460.0" transform="rotate(-90, 270.0, 460.0)" partNo="CRCW0402154KFKED" thermalId="0402" resistance="154kOhm" manufacturer="Vishay-Dale" />
  <text for="Rrc" x="285.0" y="460.0" style="font-family:arial;font-size:13px;stroke-width:0.5;stroke:#115566;fill:#115566;">Rrc</text>
  <text for="Rrc" x="285.0" y="470.0" style="font-family:arial;font-size:10px;stroke-width:0.1;stroke:#CC0000;fill:#CC0000;">154kOhm</text>
  <use id="GND" class="other" xlink:href="#WB_GND" x="595.0" y="635.0" />
  <use id="D1" class="comp" xlink:href="#WB_DIODE_SCHOTTKY" x="1000.0" y="285.0" transform="rotate(-180, 1000.0, 285.0)" vfatio="560mV" partNo="PDS760-13" io="7A" thermalId="PowerDI5" vrrm="" manufacturer="Diodes Inc." />
  <text for="D1" x="980.0" y="270.0" style="font-family:arial;font-size:13px;stroke-width:0.5;stroke:#115566;fill:#115566;">D1</text>
  <text for="D1" x="980.0" y="305.0" style="font-family:arial;font-size:10px;stroke-width:0.1;stroke:#CC0000;fill:#CC0000;">560mV</text>
  <text for="D1" x="980.0" y="315.0" style="font-family:arial;font-size:10px;stroke-width:0.1;stroke:#CC0000;fill:#CC0000;">7A</text>
  <use id="U1" class="comp" xlink:href="#WB_TPS40210DGQ" x="605.0" y="455.0" />
  <text for="U1" x="585.0" y="455.0" style="font-family:arial;font-size:13px;stroke-width:0.5;stroke:#115566;fill:#115566;">U1</text>
  <use id="Ccomp" class="comp" xlink:href="#WB_CAPACITOR" x="320.0" y="285.0" transform="rotate(-180, 320.0, 285.0)" cap="15nF" partNo="CGA4F2C0G1H153J085AA" thermalId="0805" esr="0Ohm" manufacturer="TDK" />
  <text for="Ccomp" x="300.0" y="270.0" style="font-family:arial;font-size:13px;stroke-width:0.5;stroke:#115566;fill:#115566;">Ccomp</text>
  <text for="Ccomp" x="300.0" y="305.0" style="font-family:arial;font-size:10px;stroke-width:0.1;stroke:#CC0000;fill:#CC0000;">15nF</text>
  <text for="Ccomp" x="300.0" y="315.0" style="font-family:arial;font-size:10px;stroke-width:0.1;stroke:#CC0000;fill:#CC0000;">0Ohm</text>
  <use id="Rg" class="comp" xlink:href="#WB_RESISTOR" x="745.0" y="380.0" partNo="CRCW04024R64FKED" thermalId="0402" resistance="4.64Ohm" manufacturer="Vishay-Dale" />
  <text for="Rg" x="725.0" y="365.0" style="font-family:arial;font-size:13px;stroke-width:0.5;stroke:#115566;fill:#115566;">Rg</text>
  <text for="Rg" x="725.0" y="400.0" style="font-family:arial;font-size:10px;stroke-width:0.1;stroke:#CC0000;fill:#CC0000;">4.64Ohm</text>
  <use id="Rcomp" class="comp" xlink:href="#WB_RESISTOR" x="390.0" y="285.0" transform="rotate(-180, 390.0, 285.0)" partNo="CRCW04026K49FKED" thermalId="0402" resistance="6.49kOhm" manufacturer="Vishay-Dale" />
  <text for="Rcomp" x="370.0" y="270.0" style="font-family:arial;font-size:13px;stroke-width:0.5;stroke:#115566;fill:#115566;">Rcomp</text>
  <text for="Rcomp" x="370.0" y="305.0" style="font-family:arial;font-size:10px;stroke-width:0.1;stroke:#CC0000;fill:#CC0000;">6.49kOhm</text>
  <use id="Cbp" class="comp" xlink:href="#WB_CAPACITOR" x="615.0" y="320.0" transform="rotate(-90, 615.0, 320.0)" cap="1uF" partNo="C1005X6S1C105K050BC" thermalId="0402" esr="11.416mOhm" manufacturer="TDK" />
  <text for="Cbp" x="630.0" y="320.0" style="font-family:arial;font-size:13px;stroke-width:0.5;stroke:#115566;fill:#115566;">Cbp</text>
  <text for="Cbp" x="630.0" y="330.0" style="font-family:arial;font-size:10px;stroke-width:0.1;stroke:#CC0000;fill:#CC0000;">1uF</text>
  <text for="Cbp" x="630.0" y="340.0" style="font-family:arial;font-size:10px;stroke-width:0.1;stroke:#CC0000;fill:#CC0000;">11.416mOhm</text>
  <use id="Rsense" class="comp" xlink:href="#WB_RESISTOR" x="835.0" y="540.0" transform="rotate(-270, 835.0, 540.0)" partNo="WSLP1206R0100FEA" thermalId="1206" resistance="10mOhm" manufacturer="Vishay-Dale" />
  <text for="Rsense" x="850.0" y="540.0" style="font-family:arial;font-size:13px;stroke-width:0.5;stroke:#115566;fill:#115566;">Rsense</text>
  <text for="Rsense" x="850.0" y="550.0" style="font-family:arial;font-size:10px;stroke-width:0.1;stroke:#CC0000;fill:#CC0000;">10mOhm</text>
  <use id="GND2" class="other" xlink:href="#WB_GND" x="615.0" y="360.0" />
  <use id="Cout" class="comp" xlink:href="#WB_CAP_POLARIZED" x="1160.0" y="485.0" transform="rotate(-90, 1160.0, 485.0)" cap="180uF" partNo="25SVPF180M" thermalId="CAPSMT_62_E12" esr="16mOhm" manufacturer="Panasonic" />
  <text for="Cout" x="1175.0" y="485.0" style="font-family:arial;font-size:13px;stroke-width:0.5;stroke:#115566;fill:#115566;">Cout</text>
  <text for="Cout" x="1175.0" y="495.0" style="font-family:arial;font-size:10px;stroke-width:0.1;stroke:#CC0000;fill:#CC0000;">180uF</text>
  <text for="Cout" x="1175.0" y="505.0" style="font-family:arial;font-size:10px;stroke-width:0.1;stroke:#CC0000;fill:#CC0000;">16mOhm</text>
  <use id="Crc" class="comp" xlink:href="#WB_CAPACITOR" x="270.0" y="550.0" transform="rotate(-90, 270.0, 550.0)" cap="120pF" partNo="GRM033R71E121KA01D" thermalId="0201" esr="1mOhm" manufacturer="MuRata" />
  <text for="Crc" x="285.0" y="550.0" style="font-family:arial;font-size:13px;stroke-width:0.5;stroke:#115566;fill:#115566;">Crc</text>
  <text for="Crc" x="285.0" y="560.0" style="font-family:arial;font-size:10px;stroke-width:0.1;stroke:#CC0000;fill:#CC0000;">120pF</text>
  <text for="Crc" x="285.0" y="570.0" style="font-family:arial;font-size:10px;stroke-width:0.1;stroke:#CC0000;fill:#CC0000;">1mOhm</text>
  <use id="GND3" class="other" xlink:href="#WB_GND" x="985.0" y="110.0" />
  <use id="Rfbt" class="comp" xlink:href="#WB_RESISTOR" x="1045.0" y="375.0" transform="rotate(-90, 1045.0, 375.0)" partNo="RG1608P-7682-B-T5" thermalId="0603" resistance="76.8kOhm" manufacturer="Susumu Co Ltd" />
  <text for="Rfbt" x="1060.0" y="375.0" style="font-family:arial;font-size:13px;stroke-width:0.5;stroke:#115566;fill:#115566;">Rfbt</text>
  <text for="Rfbt" x="1060.0" y="385.0" style="font-family:arial;font-size:10px;stroke-width:0.1;stroke:#CC0000;fill:#CC0000;">76.8kOhm</text>
  <use id="L1" class="comp" xlink:href="#WB_INDUCTOR_COUPLED" x="890.0" y="150.0" transform="rotate(-90, 890.0, 150.0)" partNo="CUSTOM" thermalId="CUSTOM" manufacturer="CUSTOM" />
  <text for="L1" x="905.0" y="150.0" style="font-family:arial;font-size:13px;stroke-width:0.5;stroke:#115566;fill:#115566;">L1</text>
  <use id="Css" class="comp" xlink:href="#WB_CAPACITOR" x="500.0" y="550.0" transform="rotate(-90, 500.0, 550.0)" cap="22nF" partNo="GRM155R71C223KA01D" thermalId="0402" esr="1mOhm" manufacturer="MuRata" />
  <text for="Css" x="515.0" y="550.0" style="font-family:arial;font-size:13px;stroke-width:0.5;stroke:#115566;fill:#115566;">Css</text>
  <text for="Css" x="515.0" y="560.0" style="font-family:arial;font-size:10px;stroke-width:0.1;stroke:#CC0000;fill:#CC0000;">22nF</text>
  <text for="Css" x="515.0" y="570.0" style="font-family:arial;font-size:10px;stroke-width:0.1;stroke:#CC0000;fill:#CC0000;">1mOhm</text>
  <use id="Ccoup" class="comp" xlink:href="#WB_CAPACITOR" x="890.0" y="285.0" transform="rotate(-180, 890.0, 285.0)" cap="4.7uF" partNo="C2012X5R1H475K125AB" thermalId="0805" esr="1mOhm" manufacturer="TDK" />
  <text for="Ccoup" x="870.0" y="270.0" style="font-family:arial;font-size:13px;stroke-width:0.5;stroke:#115566;fill:#115566;">Ccoup</text>
  <text for="Ccoup" x="870.0" y="305.0" style="font-family:arial;font-size:10px;stroke-width:0.1;stroke:#CC0000;fill:#CC0000;">4.7uF</text>
  <text for="Ccoup" x="870.0" y="315.0" style="font-family:arial;font-size:10px;stroke-width:0.1;stroke:#CC0000;fill:#CC0000;">1mOhm</text>
  <text for="Ccoup" x="870.0" y="325.0" style="font-family:arial;font-size:10px;stroke-width:0.1;stroke:#CC0000;fill:#CC0000;">Qty=3</text>
  <use id="Riflt" class="comp" xlink:href="#WB_RESISTOR" x="780.0" y="465.0" partNo="CRCW04021K00FKED" thermalId="0402" resistance="1kOhm" manufacturer="Vishay-Dale" />
  <text for="Riflt" x="760.0" y="450.0" style="font-family:arial;font-size:13px;stroke-width:0.5;stroke:#115566;fill:#115566;">Riflt</text>
  <text for="Riflt" x="760.0" y="485.0" style="font-family:arial;font-size:10px;stroke-width:0.1;stroke:#CC0000;fill:#CC0000;">1kOhm</text>
  <use id="M1" class="comp" xlink:href="#WB_N_MOSFET" x="820.0" y="380.0" partNo="IdealFET_Depletion" thermalId="TO-220AB" vdsmax="650V" idsmax="13Amps" manufacturer="Texas Instruments" />
  <text for="M1" x="800.0" y="365.0" style="font-family:arial;font-size:13px;stroke-width:0.5;stroke:#115566;fill:#115566;">M1</text>
  <text for="M1" x="800.0" y="400.0" style="font-family:arial;font-size:10px;stroke-width:0.1;stroke:#CC0000;fill:#CC0000;">650V</text>
  <text for="M1" x="800.0" y="410.0" style="font-family:arial;font-size:10px;stroke-width:0.1;stroke:#CC0000;fill:#CC0000;">13Amps</text>
  <use id="Ciflt" class="comp" xlink:href="#WB_CAPACITOR" x="730.0" y="545.0" transform="rotate(-90, 730.0, 545.0)" cap="100pF" partNo="TMK063CG101JT-F" thermalId="0201" esr="0Ohm" manufacturer="Taiyo Yuden" />
  <text for="Ciflt" x="745.0" y="545.0" style="font-family:arial;font-size:13px;stroke-width:0.5;stroke:#115566;fill:#115566;">Ciflt</text>
  <text for="Ciflt" x="745.0" y="555.0" style="font-family:arial;font-size:10px;stroke-width:0.1;stroke:#CC0000;fill:#CC0000;">100pF</text>
  <text for="Ciflt" x="745.0" y="565.0" style="font-family:arial;font-size:10px;stroke-width:0.1;stroke:#CC0000;fill:#CC0000;">0Ohm</text>
  <use id="Ccomp2" class="comp" xlink:href="#WB_CAPACITOR" x="390.0" y="355.0" transform="rotate(-180, 390.0, 355.0)" cap="180pF" partNo="UMK105CG181JV-F" thermalId="0402" esr="0Ohm" manufacturer="Taiyo Yuden" />
  <text for="Ccomp2" x="370.0" y="340.0" style="font-family:arial;font-size:13px;stroke-width:0.5;stroke:#115566;fill:#115566;">Ccomp2</text>
  <text for="Ccomp2" x="370.0" y="375.0" style="font-family:arial;font-size:10px;stroke-width:0.1;stroke:#CC0000;fill:#CC0000;">180pF</text>
  <text for="Ccomp2" x="370.0" y="385.0" style="font-family:arial;font-size:10px;stroke-width:0.1;stroke:#CC0000;fill:#CC0000;">0Ohm</text>
  <use id="Rfbb" class="comp" xlink:href="#WB_RESISTOR" x="1045.0" y="535.0" transform="rotate(-90, 1045.0, 535.0)" partNo="RG1608P-4751-B-T5" thermalId="0603" resistance="4.75kOhm" manufacturer="Susumu Co Ltd" />
  <text for="Rfbb" x="1060.0" y="535.0" style="font-family:arial;font-size:13px;stroke-width:0.5;stroke:#115566;fill:#115566;">Rfbb</text>
  <text for="Rfbb" x="1060.0" y="545.0" style="font-family:arial;font-size:10px;stroke-width:0.1;stroke:#CC0000;fill:#CC0000;">4.75kOhm</text>
  <use id="Vin" class="other" xlink:href="#WB_BATTERY" x="100.0" y="485.0" transform="rotate(-270, 100.0, 485.0)" />
  <text for="Vin" x="115.0" y="485.0" style="font-family:arial;font-size:13px;stroke-width:0.5;stroke:#CC0000;fill:#CC0000;">Vin</text>
  <use id="Iout" class="other" xlink:href="#WB_CURRENT_LOAD" x="1265.0" y="495.0" transform="rotate(-270, 1265.0, 495.0)" />
  <text for="Iout" x="1280.0" y="495.0" style="font-family:arial;font-size:13px;stroke-width:0.5;stroke:#CC0000;fill:#CC0000;">Iout</text>
  <line x1="1045.0" y1="345.0" x2="1045.0" y2="285.0" stroke="#000000" stroke-width="2" fill="none" />
  <line x1="525.0" y1="445.0" x2="350.0" y2="445.0" stroke="#000000" stroke-width="2" fill="none" />
  <line x1="350.0" y1="355.0" x2="350.0" y2="445.0" stroke="#000000" stroke-width="2" fill="none" />
  <line x1="270.0" y1="405.0" x2="270.0" y2="430.0" stroke="#000000" stroke-width="2" fill="none" />
  <line x1="685.0" y1="290.0" x2="615.0" y2="290.0" stroke="#000000" stroke-width="2" fill="none" />
  <line x1="910.0" y1="195.0" x2="910.0" y2="180.0" stroke="#000000" stroke-width="2" fill="none" />
  <line x1="290.0" y1="285.0" x2="280.0" y2="285.0" stroke="#000000" stroke-width="2" fill="none" />
  <line x1="835.0" y1="195.0" x2="870.0" y2="195.0" stroke="#000000" stroke-width="2" fill="none" />
  <line x1="480.0" y1="405.0" x2="480.0" y2="100.0" stroke="#000000" stroke-width="2" fill="none" />
  <line x1="685.0" y1="495.0" x2="685.0" y2="625.0" stroke="#000000" stroke-width="2" fill="none" />
  <line x1="685.0" y1="435.0" x2="705.0" y2="435.0" stroke="#000000" stroke-width="2" fill="none" />
  <line x1="525.0" y1="465.0" x2="430.0" y2="465.0" stroke="#000000" stroke-width="2" fill="none" />
  <line x1="715.0" y1="380.0" x2="705.0" y2="380.0" stroke="#000000" stroke-width="2" fill="none" />
  <line x1="730.0" y1="625.0" x2="730.0" y2="575.0" stroke="#000000" stroke-width="2" fill="none" />
  <line x1="185.0" y1="555.0" x2="185.0" y2="625.0" stroke="#000000" stroke-width="2" fill="none" />
  <line x1="930.0" y1="285.0" x2="930.0" y2="195.0" stroke="#000000" stroke-width="2" fill="none" />
  <line x1="835.0" y1="410.0" x2="835.0" y2="510.0" stroke="#000000" stroke-width="2" fill="none" />
  <line x1="420.0" y1="285.0" x2="430.0" y2="285.0" stroke="#000000" stroke-width="2" fill="none" />
  <line x1="1045.0" y1="565.0" x2="1045.0" y2="625.0" stroke="#000000" stroke-width="2" fill="none" />
  <line x1="945.0" y1="455.0" x2="1045.0" y2="455.0" stroke="#000000" stroke-width="2" fill="none" />
  <line x1="920.0" y1="285.0" x2="970.0" y2="285.0" stroke="#000000" stroke-width="2" fill="none" />
  <line x1="705.0" y1="435.0" x2="705.0" y2="380.0" stroke="#000000" stroke-width="2" fill="none" />
  <line x1="810.0" y1="465.0" x2="835.0" y2="465.0" stroke="#000000" stroke-width="2" fill="none" />
  <line x1="835.0" y1="570.0" x2="835.0" y2="625.0" stroke="#000000" stroke-width="2" fill="none" />
  <line x1="270.0" y1="520.0" x2="270.0" y2="490.0" stroke="#000000" stroke-width="2" fill="none" />
  <line x1="525.0" y1="505.0" x2="270.0" y2="505.0" stroke="#000000" stroke-width="2" fill="none" />
  <line x1="1045.0" y1="405.0" x2="1045.0" y2="505.0" stroke="#000000" stroke-width="2" fill="none" />
  <line x1="1160.0" y1="515.0" x2="1160.0" y2="625.0" stroke="#000000" stroke-width="2" fill="none" />
  <line x1="750.0" y1="465.0" x2="685.0" y2="465.0" stroke="#000000" stroke-width="2" fill="none" />
  <line x1="730.0" y1="515.0" x2="730.0" y2="465.0" stroke="#000000" stroke-width="2" fill="none" />
  <line x1="270.0" y1="580.0" x2="270.0" y2="625.0" stroke="#000000" stroke-width="2" fill="none" />
  <line x1="525.0" y1="485.0" x2="500.0" y2="485.0" stroke="#000000" stroke-width="2" fill="none" />
  <line x1="945.0" y1="670.0" x2="945.0" y2="455.0" stroke="#000000" stroke-width="2" fill="none" />
  <line x1="910.0" y1="120.0" x2="910.0" y2="100.0" stroke="#000000" stroke-width="2" fill="none" />
  <line x1="500.0" y1="625.0" x2="500.0" y2="580.0" stroke="#000000" stroke-width="2" fill="none" />
  <line x1="860.0" y1="285.0" x2="835.0" y2="285.0" stroke="#000000" stroke-width="2" fill="none" />
  <line x1="430.0" y1="670.0" x2="945.0" y2="670.0" stroke="#000000" stroke-width="2" fill="none" />
  <line x1="500.0" y1="520.0" x2="500.0" y2="485.0" stroke="#000000" stroke-width="2" fill="none" />
  <line x1="280.0" y1="355.0" x2="280.0" y2="285.0" stroke="#000000" stroke-width="2" fill="none" />
  <line x1="685.0" y1="405.0" x2="685.0" y2="290.0" stroke="#000000" stroke-width="2" fill="none" />
  <line x1="805.0" y1="380.0" x2="775.0" y2="380.0" stroke="#000000" stroke-width="2" fill="none" />
  <line x1="430.0" y1="670.0" x2="430.0" y2="285.0" stroke="#000000" stroke-width="2" fill="none" />
  <line x1="930.0" y1="195.0" x2="910.0" y2="195.0" stroke="#000000" stroke-width="2" fill="none" />
  <line x1="360.0" y1="285.0" x2="350.0" y2="285.0" stroke="#000000" stroke-width="2" fill="none" />
  <line x1="360.0" y1="355.0" x2="280.0" y2="355.0" stroke="#000000" stroke-width="2" fill="none" />
  <line x1="420.0" y1="355.0" x2="430.0" y2="355.0" stroke="#000000" stroke-width="2" fill="none" />
  <line x1="870.0" y1="195.0" x2="870.0" y2="180.0" stroke="#000000" stroke-width="2" fill="none" />
  <line x1="870.0" y1="120.0" x2="870.0" y2="100.0" stroke="#000000" stroke-width="2" fill="none" />
  <line x1="1160.0" y1="455.0" x2="1160.0" y2="285.0" stroke="#000000" stroke-width="2" fill="none" />
  <line x1="835.0" y1="350.0" x2="835.0" y2="195.0" stroke="#000000" stroke-width="2" fill="none" />
  <line x1="185.0" y1="495.0" x2="185.0" y2="405.0" stroke="#000000" stroke-width="2" fill="none" />
  <line x1="100.0" y1="625.0" x2="1265.0" y2="625.0" stroke="#000000" stroke-width="2" fill="none" />
  <line x1="480.0" y1="100.0" x2="870.0" y2="100.0" stroke="#000000" stroke-width="2" fill="none" />
  <line x1="910.0" y1="100.0" x2="985.0" y2="100.0" stroke="#000000" stroke-width="2" fill="none" />
  <line x1="100.0" y1="405.0" x2="525.0" y2="405.0" stroke="#000000" stroke-width="2" fill="none" />
  <line x1="1030.0" y1="285.0" x2="1265.0" y2="285.0" stroke="#000000" stroke-width="2" fill="none" />
  <line x1="100.0" y1="455.0" x2="100.0" y2="405.0" stroke="#000000" stroke-width="2" fill="none" />
  <line x1="100.0" y1="625.0" x2="100.0" y2="515.0" stroke="#000000" stroke-width="2" fill="none" />
  <line x1="1265.0" y1="465.0" x2="1265.0" y2="285.0" stroke="#000000" stroke-width="2" fill="none" />
  <line x1="1265.0" y1="625.0" x2="1265.0" y2="525.0" stroke="#000000" stroke-width="2" fill="none" />
  <line x1="615.0" y1="350.0" x2="615.0" y2="350.0" stroke="#000000" stroke-width="2" fill="none" />
  <circle cx="835.0" cy="465.0" r="5" stroke="#000000" stroke-width="0" fill="#000000" />
  <circle cx="930.0" cy="285.0" r="5" stroke="#000000" stroke-width="0" fill="#000000" />
  <circle cx="270.0" cy="505.0" r="5" stroke="#000000" stroke-width="0" fill="#000000" />
  <circle cx="1045.0" cy="455.0" r="5" stroke="#000000" stroke-width="0" fill="#000000" />
  <circle cx="730.0" cy="465.0" r="5" stroke="#000000" stroke-width="0" fill="#000000" />
  <circle cx="430.0" cy="465.0" r="5" stroke="#000000" stroke-width="0" fill="#000000" />
  <circle cx="430.0" cy="355.0" r="5" stroke="#000000" stroke-width="0" fill="#000000" />
  <circle cx="350.0" cy="355.0" r="5" stroke="#000000" stroke-width="0" fill="#000000" />
  <circle cx="835.0" cy="285.0" r="5" stroke="#000000" stroke-width="0" fill="#000000" />
  <circle cx="685.0" cy="625.0" r="5" stroke="#000000" stroke-width="0" fill="#000000" />
  <circle cx="730.0" cy="625.0" r="5" stroke="#000000" stroke-width="0" fill="#000000" />
  <circle cx="185.0" cy="625.0" r="5" stroke="#000000" stroke-width="0" fill="#000000" />
  <circle cx="1045.0" cy="625.0" r="5" stroke="#000000" stroke-width="0" fill="#000000" />
  <circle cx="835.0" cy="625.0" r="5" stroke="#000000" stroke-width="0" fill="#000000" />
  <circle cx="1160.0" cy="625.0" r="5" stroke="#000000" stroke-width="0" fill="#000000" />
  <circle cx="270.0" cy="625.0" r="5" stroke="#000000" stroke-width="0" fill="#000000" />
  <circle cx="500.0" cy="625.0" r="5" stroke="#000000" stroke-width="0" fill="#000000" />
  <circle cx="270.0" cy="405.0" r="5" stroke="#000000" stroke-width="0" fill="#000000" />
  <circle cx="480.0" cy="405.0" r="5" stroke="#000000" stroke-width="0" fill="#000000" />
  <circle cx="185.0" cy="405.0" r="5" stroke="#000000" stroke-width="0" fill="#000000" />
  <circle cx="1045.0" cy="285.0" r="5" stroke="#000000" stroke-width="0" fill="#000000" />
  <circle cx="1160.0" cy="285.0" r="5" stroke="#000000" stroke-width="0" fill="#000000" />
  <circle cx="595.0" cy="625.0" r="5" stroke="#000000" stroke-width="0" fill="#000000" />
</svg>

