<?xml version="1.0" encoding="UTF-8"?>
<!DOCTYPE svg PUBLIC "-//W3C//DTD SVG 1.1//EN" "http://www.w3.org/Graphics/SVG/1.1/DTD/svg11.dtd">

<svg xmlns="http://www.w3.org/2000/svg" xmlns:xlink="http://www.w3.org/1999/xlink" xmlns:xs="http://www.w3.org/2001/XMLSchema" xmlns:wb="http://www.ti.com/webench" version="1.1" width="100%" height="100%" viewBox="0 0 1240.0 540.0" preserveAspectRatio="xMidYMid meet">
  <defs>
    <g id="WB_CONTINUATION">
      <circle xmlns="" opacity="0.01" fill="#ffffff" stroke="#000000" stroke-width="0" cx="0" cy="0" r="14" />
      <line fill="none" stroke="#CC0000" stroke-width="2" x1="0" y1="10" x2="0" y2="-10" />
      <line fill="none" stroke="#CC0000" stroke-width="2" x1="-10" y1="-10" x2="10" y2="-10" />
    </g>
    <g id="WB_CAP_POLARIZED">
      <circle xmlns="" opacity="0.01" fill="#ffffff" stroke="#000000" stroke-width="0" cx="0" cy="0" r="14" />
      <path fill="none" stroke="#CC0000" stroke-width="2" stroke-linecap="round" stroke-linejoin="round" d="M-6.5,12c0.2,0,1.1 -1,2.5 -3c1.5 -2,2.3 -5,2.5 -9c-0.2 -4 -1 -7 -2.5 -9c-1.4 -2 -2.3 -3 -2.5 -3" />
      <line fill="none" stroke="#CC0000" stroke-width="2" x1="4" y1="13" x2="4" y2="-13" />
      <line fill="none" stroke="#CC0000" stroke-width="2" x1="-30" y1="0" x2="-2" y2="0" />
      <line fill="none" stroke="#CC0000" stroke-width="2" x1="4" y1="0" x2="30" y2="0" />
      <line fill="none" stroke="#CC0000" stroke-width="2" x1="14" y1="10" x2="14" y2="6" />
      <line fill="none" stroke="#CC0000" stroke-width="2" x1="12" y1="8" x2="16" y2="8" />
    </g>
    <g id="WB_BLOCK_IO">
      <circle xmlns="" opacity="0.01" fill="#ffffff" stroke="#000000" stroke-width="0" cx="0" cy="0" r="14" />
      <line stroke="#CC0000" fill="none" stroke-width="2" x1="-5" y1="0" x2="5" y2="0" />
    </g>
    <g id="WB_RESISTOR">
      <circle xmlns="" opacity="0.01" fill="#ffffff" stroke="#000000" stroke-width="0" cx="0" cy="0" r="14" />
      <polyline fill="none" stroke="#115566" stroke-width="2" stroke-linecap="round" stroke-linejoin="round" points="30,0 20,0 15,-6 7.5,6 0,-6 -7.5,6 -15,-6 -20,0 -30,0" />
    </g>
    <g id="WB_STARTUP_VOLTAGE_SOURCE">
      <circle xmlns="" opacity="0.01" fill="#ffffff" stroke="#000000" stroke-width="0" cx="0" cy="0" r="14" />
      <circle fill-opacity="0.01" fill="#CC0000" stroke="#CC0000" stroke-width="2" cx="0" cy="0" r="14" />
      <polyline fill="none" stroke="#CC0000" stroke-width="2" points="-6,-11 -6,7 5,9 5,12 " />
      <line fill="none" stroke="#CC0000" stroke-width="2" x1="16" y1="-12" x2="16" y2="-18" />
      <line fill="none" stroke="#CC0000" stroke-width="2" x1="-17" y1="-12" x2="-17" y2="-18" />
      <line fill="none" stroke="#CC0000" stroke-width="2" x1="-14" y1="-15" x2="-20" y2="-15" />
      <line fill="none" stroke="#CC0000" stroke-width="2" x1="-15" y1="0" x2="-30" y2="0" />
      <line fill="none" stroke="#CC0000" stroke-width="2" x1="30" y1="0" x2="15" y2="0" />
    </g>
    <g id="WB_SOURCE_RESISTOR">
      <circle xmlns="" opacity="0.01" fill="#ffffff" stroke="#000000" stroke-width="0" cx="0" cy="0" r="14" />
      <polyline fill="none" stroke="#CC0000" stroke-width="2" stroke-linecap="round" stroke-linejoin="round" points="30,0 20,0 15,-6 7.5,6 0,-6 -7.5,6 -15,-6 -20,0 -30,0" />
    </g>
    <g id="WB_PRIM_STARTUP_VOLTAGE_SOURCE">
      <circle xmlns="" opacity="0.01" fill="#ffffff" stroke="#000000" stroke-width="0" cx="0" cy="0" r="14" />
      <circle fill-opacity="0.01" fill="#CC0000" stroke="#CC0000" stroke-width="2" cx="0" cy="0" r="14" />
      <polyline fill="none" stroke="#CC0000" stroke-width="2" points="-6,-11 -6,7 5,9 5,12 " />
      <line fill="none" stroke="#CC0000" stroke-width="2" x1="16" y1="-12" x2="16" y2="-18" />
      <line fill="none" stroke="#CC0000" stroke-width="2" x1="-17" y1="-12" x2="-17" y2="-18" />
      <line fill="none" stroke="#CC0000" stroke-width="2" x1="-14" y1="-15" x2="-20" y2="-15" />
      <line fill="none" stroke="#CC0000" stroke-width="2" x1="-15" y1="0" x2="-30" y2="0" />
      <line fill="none" stroke="#CC0000" stroke-width="2" x1="30" y1="0" x2="15" y2="0" />
    </g>
    <g id="WB_ZERO_VOLT_SOURCE">
      <circle xmlns="" opacity="0.01" fill="#ffffff" stroke="#000000" stroke-width="0" cx="0" cy="0" r="14" />
      <line stroke="#CC0000" fill="none" stroke-width="2" x1="-5" y1="0" x2="5" y2="0" />
    </g>
    <g id="WB_PRIMITIVE_CAPACITOR">
      <circle xmlns="" opacity="0.01" fill="#ffffff" stroke="#000000" stroke-width="0" cx="0" cy="0" r="14" />
      <line y1="0" x2="20" stroke="#CC0000" x1="30" fill="none" stroke-width="2" y2="0" />
      <line y1="0" x2="-20" stroke="#CC0000" x1="-30" fill="none" stroke-width="2" y2="0" />
      <polyline stroke="#CC0000" points="3,12 3,-12  " stroke-linejoin="round" fill="none" stroke-width="2" stroke-linecap="round" />
      <polyline stroke="#CC0000" points="-20,0 -3,0  " stroke-linejoin="round" fill="none" stroke-width="2" stroke-linecap="round" />
      <polyline stroke="#CC0000" points="3,0 20,0  " stroke-linejoin="round" fill="none" stroke-width="2" stroke-linecap="round" />
      <polyline stroke="#CC0000" points="-3,12 -3,-12  " stroke-linejoin="round" fill="none" stroke-width="2" stroke-linecap="round" />
    </g>
    <g id="WB_GND_SIGNAL">
      <circle xmlns="" opacity="0.01" fill="#ffffff" stroke="#000000" stroke-width="0" cx="0" cy="0" r="14" />
      <polygon fill="black" stroke="black" stroke-width="2" points="12.5,0 0,10 -12.5,0 12.5,0" />
      <line fill="none" stroke="black" stroke-width="2" x1="0" y1="-10" x2="0" y2="0" />
    </g>
    <g id="WB_PWL_VOLTAGE_SOURCE">
      <circle xmlns="" opacity="0.01" fill="#ffffff" stroke="#000000" stroke-width="0" cx="0" cy="0" r="14" />
      <circle fill-opacity="0.01" fill="#CC0000" stroke="#CC0000" stroke-width="2" cx="0" cy="0" r="14" />
      <line y1="0" x2="-20" stroke="#CC0000" x1="-30" fill="none" stroke-width="2" y2="0" />
      <line y1="0" x2="20" stroke="#CC0000" x1="30" fill="none" stroke-width="2" y2="0" />
      <polyline stroke="#CC0000" points="-7,6 4,8  " stroke-linejoin="round" fill="none" stroke-width="2" stroke-linecap="round" />
      <polyline stroke="#CC0000" points="-7,-6 4,-8  " stroke-linejoin="round" fill="none" stroke-width="2" stroke-linecap="round" />
      <polyline stroke="#CC0000" points="-20,0 -15,0  " stroke-linejoin="round" fill="none" stroke-width="2" stroke-linecap="round" />
      <polyline stroke="#CC0000" points="20,0 15,0  " stroke-linejoin="round" fill="none" stroke-width="2" stroke-linecap="round" />
      <polyline stroke="#CC0000" points="-7,-6 -7,6  " stroke-linejoin="round" fill="none" stroke-width="2" stroke-linecap="round" />
      <polyline stroke="#CC0000" points="4,-8 4,-11  " stroke-linejoin="round" fill="none" stroke-width="2" stroke-linecap="round" />
      <polyline stroke="#CC0000" points="4,8 4,11  " stroke-linejoin="round" fill="none" stroke-width="2" stroke-linecap="round" />
      <line x1="23" y1="-13" x2="23" y2="-7" stroke="#CC0000" fill="none" stroke-width="2" stroke-linecap="round" />
      <line x1="-23" y1="-13" x2="-23" y2="-7" stroke="#CC0000" fill="none" stroke-width="2" stroke-linecap="round" />
      <line x1="-26" y1="-10" x2="-20" y2="-10" stroke="#CC0000" fill="none" stroke-width="2" stroke-linecap="round" />
    </g>
    <g id="WB_PRIM_PWL_VOLTAGE_SOURCE">
      <circle xmlns="" opacity="0.01" fill="#ffffff" stroke="#000000" stroke-width="0" cx="0" cy="0" r="14" />
      <circle fill-opacity="0.01" fill="#CC0000" stroke="#CC0000" stroke-width="2" cx="0" cy="0" r="14" />
      <line x1="-30" y1="0" x2="-15" y2="0" stroke="#CC0000" fill="none" stroke-width="2" />
      <line x1="30" y1="0" x2="15" y2="0" stroke="#CC0000" fill="none" stroke-width="2" />
      <polyline stroke="#CC0000" points="0,13 0,8 -7,6 -7,0 7,-4 0,-8 0,-13" stroke-linejoin="round" fill="none" stroke-width="2" stroke-linecap="round" />
      <line x1="23" y1="-13" x2="23" y2="-7" stroke="#CC0000" fill="none" stroke-width="2" stroke-linecap="round" />
      <line x1="-23" y1="-13" x2="-23" y2="-7" stroke="#CC0000" fill="none" stroke-width="2" stroke-linecap="round" />
      <line x1="-26" y1="-10" x2="-20" y2="-10" stroke="#CC0000" fill="none" stroke-width="2" stroke-linecap="round" />
    </g>
    <g id="WB_CURRENT_PROBE">
      <circle xmlns="" opacity="0.01" fill="#ffffff" stroke="#000000" stroke-width="0" cx="0" cy="0" r="14" />
      <line stroke="#CC0000" stroke-width="2" stroke-linecap="square" stroke-linejoin="round" x1="-16" y1="0" x2="-10" y2="0" />
      <polyline stroke="#CC0000" stroke-width="2" stroke-linecap="square" stroke-linejoin="round" points="6,0 3,-3.5 3,3.5 6,0 -6,0 " />
      <line stroke="#CC0000" stroke-width="2" stroke-linecap="square" stroke-linejoin="round" x1="10" y1="0" x2="16" y2="0" />
      <rect stroke-width="1" x="-9.5" y="-7" fill="none" stroke="#CC0000" width="19" height="14" />
    </g>
    <g id="WB_LOAD_RESISTOR">
      <circle xmlns="" opacity="0.01" fill="#ffffff" stroke="#000000" stroke-width="0" cx="0" cy="0" r="14" />
      <polyline fill="none" stroke="#CC0000" stroke-width="2" stroke-linecap="round" stroke-linejoin="round" points="30,0 20,0 15,-6 7.5,6 0,-6 -7.5,6 -15,-6 -20,0 -30,0" />
    </g>
    <g id="WB_PRIMITIVE_BATTERY">
      <circle xmlns="" opacity="0.01" fill="#ffffff" stroke="#000000" stroke-width="0" cx="0" cy="0" r="14" />
      <line fill="none" stroke="#CC0000" stroke-width="2" x1="-8" y1="0" x2="-30" y2="0" />
      <line fill="none" stroke="#CC0000" stroke-width="2" x1="-7" y1="12" x2="-7" y2="-12" />
      <line fill="none" stroke="#CC0000" stroke-width="2" x1="4" y1="12" x2="4" y2="-12" />
      <line fill="none" stroke="#CC0000" stroke-width="2" x1="30" y1="0" x2="11" y2="0" />
      <line fill="none" stroke="#CC0000" stroke-width="2" x1="-2" y1="5" x2="-2" y2="-5" />
      <line fill="none" stroke="#CC0000" stroke-width="2" x1="-1" y1="5" x2="-1" y2="-5" />
      <line fill="none" stroke="#CC0000" stroke-width="2" x1="-14" y1="-9" x2="-14" y2="-15" />
      <line fill="none" stroke="#CC0000" stroke-width="2" x1="-11" y1="-12" x2="-17" y2="-12" />
      <line fill="none" stroke="#CC0000" stroke-width="2" x1="13" y1="-10" x2="13" y2="-15" />
      <line fill="none" stroke="#CC0000" stroke-width="2" x1="10" y1="5" x2="10" y2="-5" />
      <line fill="none" stroke="#CC0000" stroke-width="2" x1="9" y1="5" x2="9" y2="-5" />
    </g>
    <g id="WB_PWL_CURRENT_LOAD">
      <circle xmlns="" opacity="0.01" fill="#ffffff" stroke="#000000" stroke-width="0" cx="0" cy="0" r="14" />
      <circle fill-opacity="0.01" fill="#CC0000" stroke="#CC0000" stroke-width="2" cx="0" cy="0" r="14" />
      <line y1="0" x2="-20" stroke="#CC0000" x1="-30" fill="none" stroke-width="2" y2="0" />
      <line y1="0" x2="20" stroke="#CC0000" x1="30" fill="none" stroke-width="2" y2="0" />
      <polyline stroke="#CC0000" points="-7,6 4,8  " stroke-linejoin="round" fill="none" stroke-width="2" stroke-linecap="round" />
      <polyline stroke="#CC0000" points="-7,-6 4,-8  " stroke-linejoin="round" fill="none" stroke-width="2" stroke-linecap="round" />
      <polyline stroke="#CC0000" points="-20,0 -15,0  " stroke-linejoin="round" fill="none" stroke-width="2" stroke-linecap="round" />
      <polyline stroke="#CC0000" points="20,0 15,0  " stroke-linejoin="round" fill="none" stroke-width="2" stroke-linecap="round" />
      <polyline stroke="#CC0000" points="-7,-6 -7,6  " stroke-linejoin="round" fill="none" stroke-width="2" stroke-linecap="round" />
      <polyline stroke="#CC0000" points="4,-8 4,-11  " stroke-linejoin="round" fill="none" stroke-width="2" stroke-linecap="round" />
      <polyline stroke="#CC0000" points="4,8 4,11  " stroke-linejoin="round" fill="none" stroke-width="2" stroke-linecap="round" />
      <line x1="23" y1="-13" x2="23" y2="-7" stroke="#CC0000" fill="none" stroke-width="2" stroke-linecap="round" />
      <line x1="-23" y1="-13" x2="-23" y2="-7" stroke="#CC0000" fill="none" stroke-width="2" stroke-linecap="round" />
      <line x1="-26" y1="-10" x2="-20" y2="-10" stroke="#CC0000" fill="none" stroke-width="2" stroke-linecap="round" />
    </g>
    <g id="WB_PRIM_PULSE_VOLTAGE_SOURCE">
      <circle xmlns="" opacity="0.01" fill="#ffffff" stroke="#000000" stroke-width="0" cx="0" cy="0" r="14" />
      <circle fill-opacity="0.01" fill="#CC0000" stroke="#CC0000" stroke-width="2" cx="0" cy="0" r="14" />
      <line y1="0" x2="-20" stroke="#CC0000" x1="-30" fill="none" stroke-width="2" y2="0" />
      <line y1="0" x2="20" stroke="#CC0000" x1="30" fill="none" stroke-width="2" y2="0" />
      <polyline stroke="#CC0000" points="-7,6 4,8  " stroke-linejoin="round" fill="none" stroke-width="2" stroke-linecap="round" />
      <polyline stroke="#CC0000" points="-7,-6 4,-8  " stroke-linejoin="round" fill="none" stroke-width="2" stroke-linecap="round" />
      <polyline stroke="#CC0000" points="-20,0 -15,0  " stroke-linejoin="round" fill="none" stroke-width="2" stroke-linecap="round" />
      <polyline stroke="#CC0000" points="20,0 15,0  " stroke-linejoin="round" fill="none" stroke-width="2" stroke-linecap="round" />
      <polyline stroke="#CC0000" points="-7,-6 -7,6  " stroke-linejoin="round" fill="none" stroke-width="2" stroke-linecap="round" />
      <polyline stroke="#CC0000" points="4,-8 4,-11  " stroke-linejoin="round" fill="none" stroke-width="2" stroke-linecap="round" />
      <polyline stroke="#CC0000" points="4,8 4,11  " stroke-linejoin="round" fill="none" stroke-width="2" stroke-linecap="round" />
      <line x1="23" y1="-13" x2="23" y2="-7" stroke="#CC0000" fill="none" stroke-width="2" stroke-linecap="round" />
      <line x1="-23" y1="-13" x2="-23" y2="-7" stroke="#CC0000" fill="none" stroke-width="2" stroke-linecap="round" />
      <line x1="-26" y1="-10" x2="-20" y2="-10" stroke="#CC0000" fill="none" stroke-width="2" stroke-linecap="round" />
    </g>
    <g id="WB_BATTERY">
      <circle xmlns="" opacity="0.01" fill="#ffffff" stroke="#000000" stroke-width="0" cx="0" cy="0" r="14" />
      <line fill="none" stroke="#CC0000" stroke-width="2" x1="-8" y1="0" x2="-30" y2="0" />
      <line fill="none" stroke="#CC0000" stroke-width="2" x1="-7" y1="12" x2="-7" y2="-12" />
      <line fill="none" stroke="#CC0000" stroke-width="2" x1="4" y1="12" x2="4" y2="-12" />
      <line fill="none" stroke="#CC0000" stroke-width="2" x1="30" y1="0" x2="11" y2="0" />
      <line fill="none" stroke="#CC0000" stroke-width="2" x1="-2" y1="5" x2="-2" y2="-5" />
      <line fill="none" stroke="#CC0000" stroke-width="2" x1="-1" y1="5" x2="-1" y2="-5" />
      <line fill="none" stroke="#CC0000" stroke-width="2" x1="-14" y1="-9" x2="-14" y2="-15" />
      <line fill="none" stroke="#CC0000" stroke-width="2" x1="-11" y1="-12" x2="-17" y2="-12" />
      <line fill="none" stroke="#CC0000" stroke-width="2" x1="13" y1="-10" x2="13" y2="-15" />
      <line fill="none" stroke="#CC0000" stroke-width="2" x1="10" y1="5" x2="10" y2="-5" />
      <line fill="none" stroke="#CC0000" stroke-width="2" x1="9" y1="5" x2="9" y2="-5" />
    </g>
    <g id="WB_CAPACITOR">
      <circle xmlns="" opacity="0.01" fill="#ffffff" stroke="#000000" stroke-width="0" cx="0" cy="0" r="14" />
      <line y1="0" x2="20" stroke="#115566" x1="30" fill="none" stroke-width="2" y2="0" />
      <line y1="0" x2="-20" stroke="#115566" x1="-30" fill="none" stroke-width="2" y2="0" />
      <polyline stroke="#115566" points="3,12 3,-12  " stroke-linejoin="round" fill="none" stroke-width="2" stroke-linecap="round" />
      <polyline stroke="#115566" points="-20,0 -3,0  " stroke-linejoin="round" fill="none" stroke-width="2" stroke-linecap="round" />
      <polyline stroke="#115566" points="3,0 20,0  " stroke-linejoin="round" fill="none" stroke-width="2" stroke-linecap="round" />
      <polyline stroke="#115566" points="-3,12 -3,-12  " stroke-linejoin="round" fill="none" stroke-width="2" stroke-linecap="round" />
    </g>
    <g id="WB_GND">
      <circle xmlns="" opacity="0.01" fill="#ffffff" stroke="#000000" stroke-width="0" cx="0" cy="0" r="14" />
      <line fill="none" stroke="black" stroke-width="2" x1="0" y1="-10" x2="0" y2="0" />
      <line fill="none" stroke="black" stroke-width="2" x1="-13" y1="0" x2="13" y2="0" />
      <line fill="none" stroke="black" stroke-width="2" x1="-9" y1="4" x2="9" y2="4" />
      <line fill="none" stroke="black" stroke-width="2" x1="-3" y1="8" x2="3" y2="8" />
    </g>
    <g id="WB_TPSM84824MOL">
      <circle xmlns="" opacity="0.01" fill="#ffffff" stroke="#000000" stroke-width="0" cx="0" cy="0" r="14" />
      <line fill="none" stroke="#000000" stroke-width="2" stroke-linecap="round" stroke-linejoin="round" x1="-70" y1="120" x2="70" y2="120" />
      <line fill="none" stroke="#000000" stroke-width="2" stroke-linecap="round" stroke-linejoin="round" x1="70" y1="120" x2="70" y2="-120" />
      <line fill="none" stroke="#000000" stroke-width="2" stroke-linecap="round" stroke-linejoin="round" x1="70" y1="-120" x2="-70" y2="-120" />
      <line fill="none" stroke="#000000" stroke-width="2" stroke-linecap="round" stroke-linejoin="round" x1="-70" y1="-120" x2="-70" y2="120" />
      <text id="partNumber_label" x="0" y="-107" style="font-family:arial;font-weight:bold;font-size:12px;text-anchor:middle;">TPSM84824MOL</text>
      <line fill="none" stroke="#000000" stroke-width="2" stroke-linecap="round" stroke-linejoin="round" x1="90" y1="-100" x2="70" y2="-100" />
      <text id="1" x="66" y="-96" transform="rotate(0,66,-96)" style="font-family:arial;font-weight:normal;font-size:9px;text-anchor:end;">VOUT</text>
      <line fill="none" stroke="#000000" stroke-width="2" stroke-linecap="round" stroke-linejoin="round" x1="90" y1="30" x2="70" y2="30" />
      <text id="2" x="66" y="34" transform="rotate(0,66,34)" style="font-family:arial;font-weight:normal;font-size:9px;text-anchor:end;">FB</text>
      <line fill="none" stroke="#000000" stroke-width="2" stroke-linecap="round" stroke-linejoin="round" x1="90" y1="110" x2="70" y2="110" />
      <text id="3" x="66" y="114" transform="rotate(0,66,114)" style="font-family:arial;font-weight:normal;font-size:9px;text-anchor:end;">AGND</text>
      <line fill="none" stroke="#000000" stroke-width="2" stroke-linecap="round" stroke-linejoin="round" x1="90" y1="70" x2="70" y2="70" />
      <text id="4" x="66" y="74" transform="rotate(0,66,74)" style="font-family:arial;font-weight:normal;font-size:9px;text-anchor:end;">DNC</text>
      <line fill="none" stroke="#000000" stroke-width="2" stroke-linecap="round" stroke-linejoin="round" x1="90" y1="90" x2="70" y2="90" />
      <text id="5" x="66" y="94" transform="rotate(0,66,94)" style="font-family:arial;font-weight:normal;font-size:9px;text-anchor:end;">TT</text>
      <line fill="none" stroke="#000000" stroke-width="2" stroke-linecap="round" stroke-linejoin="round" x1="90" y1="50" x2="70" y2="50" />
      <text id="6" x="66" y="54" transform="rotate(0,66,54)" style="font-family:arial;font-weight:normal;font-size:9px;text-anchor:end;">SS_TRK</text>
      <line fill="none" stroke="#000000" stroke-width="2" stroke-linecap="round" stroke-linejoin="round" x1="-90" y1="50" x2="-70" y2="50" />
      <text id="7" x="-66" y="54" transform="rotate(0,-66,54)" style="font-family:arial;font-weight:normal;font-size:9px;text-anchor:start;">PGOOD</text>
      <line fill="none" stroke="#000000" stroke-width="2" stroke-linecap="round" stroke-linejoin="round" x1="90" y1="-90" x2="70" y2="-90" />
      <text id="8" x="66" y="-86" transform="rotate(0,66,-86)" style="font-family:arial;font-weight:normal;font-size:9px;text-anchor:end;">VOUT</text>
      <line fill="none" stroke="#000000" stroke-width="2" stroke-linecap="round" stroke-linejoin="round" x1="-90" y1="110" x2="-70" y2="110" />
      <text id="9" x="-66" y="114" transform="rotate(0,-66,114)" style="font-family:arial;font-weight:normal;font-size:9px;text-anchor:start;">AGND</text>
      <line fill="none" stroke="#000000" stroke-width="2" stroke-linecap="round" stroke-linejoin="round" x1="-90" y1="30" x2="-70" y2="30" />
      <text id="10" x="-66" y="34" transform="rotate(0,-66,34)" style="font-family:arial;font-weight:normal;font-size:9px;text-anchor:start;">EN</text>
      <line fill="none" stroke="#000000" stroke-width="2" stroke-linecap="round" stroke-linejoin="round" x1="-90" y1="-100" x2="-70" y2="-100" />
      <text id="11" x="-66" y="-96" transform="rotate(0,-66,-96)" style="font-family:arial;font-weight:normal;font-size:9px;text-anchor:start;">VIN</text>
      <line fill="none" stroke="#000000" stroke-width="2" stroke-linecap="round" stroke-linejoin="round" x1="90" y1="-50" x2="70" y2="-50" />
      <text id="12" x="66" y="-46" transform="rotate(0,66,-46)" style="font-family:arial;font-weight:normal;font-size:9px;text-anchor:end;">PGND</text>
      <line fill="none" stroke="#000000" stroke-width="2" stroke-linecap="round" stroke-linejoin="round" x1="-90" y1="-50" x2="-70" y2="-50" />
      <text id="13" x="-66" y="-46" transform="rotate(0,-66,-46)" style="font-family:arial;font-weight:normal;font-size:9px;text-anchor:start;">PGND</text>
      <line fill="none" stroke="#000000" stroke-width="2" stroke-linecap="round" stroke-linejoin="round" x1="-90" y1="-40" x2="-70" y2="-40" />
      <text id="14" x="-66" y="-36" transform="rotate(0,-66,-36)" style="font-family:arial;font-weight:normal;font-size:9px;text-anchor:start;">PGND</text>
      <line fill="none" stroke="#000000" stroke-width="2" stroke-linecap="round" stroke-linejoin="round" x1="-90" y1="-30" x2="-70" y2="-30" />
      <text id="15" x="-66" y="-26" transform="rotate(0,-66,-26)" style="font-family:arial;font-weight:normal;font-size:9px;text-anchor:start;">PGND</text>
      <line fill="none" stroke="#000000" stroke-width="2" stroke-linecap="round" stroke-linejoin="round" x1="90" y1="-10" x2="70" y2="-10" />
      <text id="16" x="66" y="-6" transform="rotate(0,66,-6)" style="font-family:arial;font-weight:normal;font-size:9px;text-anchor:end;">SW</text>
      <line fill="none" stroke="#000000" stroke-width="2" stroke-linecap="round" stroke-linejoin="round" x1="90" y1="0" x2="70" y2="0" />
      <text id="17" x="66" y="4" transform="rotate(0,66,4)" style="font-family:arial;font-weight:normal;font-size:9px;text-anchor:end;">SW</text>
      <line fill="none" stroke="#000000" stroke-width="2" stroke-linecap="round" stroke-linejoin="round" x1="-90" y1="-20" x2="-70" y2="-20" />
      <text id="18" x="-66" y="-16" transform="rotate(0,-66,-16)" style="font-family:arial;font-weight:normal;font-size:9px;text-anchor:start;">PGND</text>
      <line fill="none" stroke="#000000" stroke-width="2" stroke-linecap="round" stroke-linejoin="round" x1="-90" y1="-10" x2="-70" y2="-10" />
      <text id="19" x="-66" y="-6" transform="rotate(0,-66,-6)" style="font-family:arial;font-weight:normal;font-size:9px;text-anchor:start;">PGND</text>
      <line fill="none" stroke="#000000" stroke-width="2" stroke-linecap="round" stroke-linejoin="round" x1="-90" y1="0" x2="-70" y2="0" />
      <text id="20" x="-66" y="4" transform="rotate(0,-66,4)" style="font-family:arial;font-weight:normal;font-size:9px;text-anchor:start;">PGND</text>
      <line fill="none" stroke="#000000" stroke-width="2" stroke-linecap="round" stroke-linejoin="round" x1="90" y1="-40" x2="70" y2="-40" />
      <text id="21" x="66" y="-36" transform="rotate(0,66,-36)" style="font-family:arial;font-weight:normal;font-size:9px;text-anchor:end;">PGND</text>
      <line fill="none" stroke="#000000" stroke-width="2" stroke-linecap="round" stroke-linejoin="round" x1="-90" y1="-90" x2="-70" y2="-90" />
      <text id="22" x="-66" y="-86" transform="rotate(0,-66,-86)" style="font-family:arial;font-weight:normal;font-size:9px;text-anchor:start;">VIN</text>
      <line fill="none" stroke="#000000" stroke-width="2" stroke-linecap="round" stroke-linejoin="round" x1="-90" y1="90" x2="-70" y2="90" />
      <text id="23" x="-66" y="94" transform="rotate(0,-66,94)" style="font-family:arial;font-weight:normal;font-size:9px;text-anchor:start;">AGND</text>
      <line fill="none" stroke="#000000" stroke-width="2" stroke-linecap="round" stroke-linejoin="round" x1="-90" y1="70" x2="-70" y2="70" />
      <text id="24" x="-66" y="74" transform="rotate(0,-66,74)" style="font-family:arial;font-weight:normal;font-size:9px;text-anchor:start;">RT_CLK</text>
    </g>
    <g id="WB_VOLTAGE_PROBE">
      <circle xmlns="" opacity="0.01" fill="#ffffff" stroke="#000000" stroke-width="0" cx="0" cy="0" r="14" />
      <rect stroke-width="1" width="20" stroke="#CC0000" x="-10" height="19.5" y="-30" fill="#CC0000" fill-opacity="0.01" />
      <polyline stroke="#CC0000" points="7,-27 4,-22 3,-26 0,-18 -1,-22 -5,-14  " stroke-linejoin="round" fill="none" stroke-width="2" stroke-linecap="round" />
      <line y1="0" x2="0" stroke="#CC0000" x1="0" fill="none" stroke-width="2" y2="-10" />
    </g>
    <g id="WB_CAP_OUTPUT">
      <circle xmlns="" opacity="0.01" fill="#ffffff" stroke="#000000" stroke-width="0" cx="0" cy="0" r="14" />
      <path fill="none" stroke="#CC0000" stroke-width="2" stroke-linecap="round" stroke-linejoin="round" d="M-6.5,12c0.2,0,1.1 -1,2.5 -3c1.5 -2,2.3 -5,2.5 -9c-0.2 -4 -1 -7 -2.5 -9c-1.4 -2 -2.3 -3 -2.5 -3" />
      <line fill="none" stroke="#CC0000" stroke-width="2" x1="4" y1="13" x2="4" y2="-13" />
      <line fill="none" stroke="#CC0000" stroke-width="2" x1="-30" y1="0" x2="-2" y2="0" />
      <line fill="none" stroke="#CC0000" stroke-width="2" x1="4" y1="0" x2="30" y2="0" />
      <line fill="none" stroke="#CC0000" stroke-width="2" x1="14" y1="10" x2="14" y2="6" />
      <line fill="none" stroke="#CC0000" stroke-width="2" x1="12" y1="8" x2="16" y2="8" />
    </g>
  </defs>
  <use id="Cin" class="comp" xlink:href="#WB_CAPACITOR" x="190.0" y="230.0" transform="rotate(-90, 190.0, 230.0)" cap="10uF" partNo="C3225X5R1H106K250AB" thermalId="1210_280" esr="1mOhm" manufacturer="TDK" />
  <text for="Cin" x="205.0" y="230.0" style="font-family:arial;font-size:13px;stroke-width:0.5;stroke:#115566;fill:#115566;">Cin</text>
  <text for="Cin" x="205.0" y="240.0" style="font-family:arial;font-size:10px;stroke-width:0.1;stroke:#CC0000;fill:#CC0000;">10uF</text>
  <text for="Cin" x="205.0" y="250.0" style="font-family:arial;font-size:10px;stroke-width:0.1;stroke:#CC0000;fill:#CC0000;">1mOhm</text>
  <use id="Cin1" class="comp" xlink:href="#WB_CAPACITOR" x="270.0" y="230.0" transform="rotate(-90, 270.0, 230.0)" cap="10uF" partNo="C3225X5R1H106K250AB" thermalId="1210_280" esr="1mOhm" manufacturer="TDK" />
  <text for="Cin1" x="285.0" y="230.0" style="font-family:arial;font-size:13px;stroke-width:0.5;stroke:#115566;fill:#115566;">Cin1</text>
  <text for="Cin1" x="285.0" y="240.0" style="font-family:arial;font-size:10px;stroke-width:0.1;stroke:#CC0000;fill:#CC0000;">10uF</text>
  <text for="Cin1" x="285.0" y="250.0" style="font-family:arial;font-size:10px;stroke-width:0.1;stroke:#CC0000;fill:#CC0000;">1mOhm</text>
  <use id="Cout" class="comp" xlink:href="#WB_CAPACITOR" x="970.0" y="230.0" transform="rotate(-90, 970.0, 230.0)" cap="47uF" partNo="GRM32ER61C476KE15L" thermalId="1210_280" esr="3.037mOhm" manufacturer="MuRata" />
  <text for="Cout" x="985.0" y="230.0" style="font-family:arial;font-size:13px;stroke-width:0.5;stroke:#115566;fill:#115566;">Cout</text>
  <text for="Cout" x="985.0" y="240.0" style="font-family:arial;font-size:10px;stroke-width:0.1;stroke:#CC0000;fill:#CC0000;">47uF</text>
  <text for="Cout" x="985.0" y="250.0" style="font-family:arial;font-size:10px;stroke-width:0.1;stroke:#CC0000;fill:#CC0000;">3.037mOhm</text>
  <use id="GND2" class="other" xlink:href="#WB_GND" x="480.0" y="220.0" />
  <use id="GND3" class="other" xlink:href="#WB_GND" x="720.0" y="185.0" />
  <use id="GND6" class="other" xlink:href="#WB_GND" x="215.0" y="360.0" />
  <use id="GND7" class="other" xlink:href="#WB_GND" x="1015.0" y="345.0" />
  <use id="GND8" class="other" xlink:href="#WB_GND_SIGNAL" x="595.0" y="440.0" />
  <use id="Rtt" class="comp" xlink:href="#WB_RESISTOR" x="730.0" y="370.0" transform="rotate(-90, 730.0, 370.0)" partNo="CRCW04024K42FKED" thermalId="0402" resistance="4.42kOhm" manufacturer="Vishay-Dale" />
  <text for="Rtt" x="745.0" y="370.0" style="font-family:arial;font-size:13px;stroke-width:0.5;stroke:#115566;fill:#115566;">Rtt</text>
  <text for="Rtt" x="745.0" y="380.0" style="font-family:arial;font-size:10px;stroke-width:0.1;stroke:#CC0000;fill:#CC0000;">4.42kOhm</text>
  <use id="U1" class="comp" xlink:href="#WB_TPSM84824MOL" x="605.0" y="210.0" />
  <text for="U1" x="585.0" y="210.0" style="font-family:arial;font-size:13px;stroke-width:0.5;stroke:#115566;fill:#115566;">U1</text>
  <use id="Rfbb" class="comp" xlink:href="#WB_RESISTOR" x="885.0" y="340.0" transform="rotate(-90, 885.0, 340.0)" partNo="CRCW04021K37FKED" thermalId="0402" resistance="1.37kOhm" manufacturer="Vishay-Dale" />
  <text for="Rfbb" x="900.0" y="340.0" style="font-family:arial;font-size:13px;stroke-width:0.5;stroke:#115566;fill:#115566;">Rfbb</text>
  <text for="Rfbb" x="900.0" y="350.0" style="font-family:arial;font-size:10px;stroke-width:0.1;stroke:#CC0000;fill:#CC0000;">1.37kOhm</text>
  <use id="Rfbt" class="comp" xlink:href="#WB_RESISTOR" x="885.0" y="170.0" transform="rotate(-90, 885.0, 170.0)" partNo="RC0201FR-0710KL" thermalId="0201" resistance="10kOhm" manufacturer="Yageo" />
  <text for="Rfbt" x="900.0" y="170.0" style="font-family:arial;font-size:13px;stroke-width:0.5;stroke:#115566;fill:#115566;">Rfbt</text>
  <text for="Rfbt" x="900.0" y="180.0" style="font-family:arial;font-size:10px;stroke-width:0.1;stroke:#CC0000;fill:#CC0000;">10kOhm</text>
  <use id="Rt" class="comp" xlink:href="#WB_RESISTOR" x="430.0" y="360.0" transform="rotate(-270, 430.0, 360.0)" partNo="CRCW040240K2FKED" thermalId="0402" resistance="40.2kOhm" manufacturer="Vishay-Dale" />
  <text for="Rt" x="445.0" y="360.0" style="font-family:arial;font-size:13px;stroke-width:0.5;stroke:#115566;fill:#115566;">Rt</text>
  <text for="Rt" x="445.0" y="370.0" style="font-family:arial;font-size:10px;stroke-width:0.1;stroke:#CC0000;fill:#CC0000;">40.2kOhm</text>
  <use id="Vin" class="other" xlink:href="#WB_BATTERY" x="100.0" y="190.0" transform="rotate(-270, 100.0, 190.0)" />
  <text for="Vin" x="115.0" y="190.0" style="font-family:arial;font-size:13px;stroke-width:0.5;stroke:#CC0000;fill:#CC0000;">Vin</text>
  <use id="Rload" class="other" xlink:href="#WB_LOAD_RESISTOR" x="1125.0" y="260.0" transform="rotate(-90, 1125.0, 260.0)" />
  <text for="Rload" x="1140.0" y="260.0" style="font-family:arial;font-size:13px;stroke-width:0.5;stroke:#CC0000;fill:#CC0000;">Rload</text>
  <line x1="885.0" y1="370.0" x2="885.0" y2="430.0" stroke="#000000" stroke-width="2" fill="none" />
  <line x1="885.0" y1="310.0" x2="885.0" y2="200.0" stroke="#000000" stroke-width="2" fill="none" />
  <line x1="885.0" y1="140.0" x2="885.0" y2="110.0" stroke="#000000" stroke-width="2" fill="none" />
  <line x1="695.0" y1="240.0" x2="885.0" y2="240.0" stroke="#000000" stroke-width="2" fill="none" />
  <line x1="430.0" y1="430.0" x2="430.0" y2="390.0" stroke="#000000" stroke-width="2" fill="none" />
  <line x1="430.0" y1="330.0" x2="430.0" y2="280.0" stroke="#000000" stroke-width="2" fill="none" />
  <line x1="100.0" y1="350.0" x2="270.0" y2="350.0" stroke="#000000" stroke-width="2" fill="none" />
  <line x1="190.0" y1="260.0" x2="190.0" y2="350.0" stroke="#000000" stroke-width="2" fill="none" />
  <line x1="270.0" y1="260.0" x2="270.0" y2="350.0" stroke="#000000" stroke-width="2" fill="none" />
  <line x1="270.0" y1="110.0" x2="270.0" y2="200.0" stroke="#000000" stroke-width="2" fill="none" />
  <line x1="430.0" y1="280.0" x2="515.0" y2="280.0" stroke="#000000" stroke-width="2" fill="none" />
  <line x1="480.0" y1="210.0" x2="480.0" y2="160.0" stroke="#000000" stroke-width="2" fill="none" />
  <line x1="480.0" y1="210.0" x2="515.0" y2="210.0" stroke="#000000" stroke-width="2" fill="none" />
  <line x1="480.0" y1="190.0" x2="515.0" y2="190.0" stroke="#000000" stroke-width="2" fill="none" />
  <line x1="480.0" y1="180.0" x2="515.0" y2="180.0" stroke="#000000" stroke-width="2" fill="none" />
  <line x1="480.0" y1="170.0" x2="515.0" y2="170.0" stroke="#000000" stroke-width="2" fill="none" />
  <line x1="480.0" y1="160.0" x2="515.0" y2="160.0" stroke="#000000" stroke-width="2" fill="none" />
  <line x1="515.0" y1="300.0" x2="515.0" y2="430.0" stroke="#000000" stroke-width="2" fill="none" />
  <line x1="515.0" y1="200.0" x2="480.0" y2="200.0" stroke="#000000" stroke-width="2" fill="none" />
  <line x1="515.0" y1="120.0" x2="515.0" y2="110.0" stroke="#000000" stroke-width="2" fill="none" />
  <line x1="695.0" y1="320.0" x2="695.0" y2="430.0" stroke="#000000" stroke-width="2" fill="none" />
  <line x1="695.0" y1="300.0" x2="730.0" y2="300.0" stroke="#000000" stroke-width="2" fill="none" />
  <line x1="695.0" y1="210.0" x2="695.0" y2="200.0" stroke="#000000" stroke-width="2" fill="none" />
  <line x1="695.0" y1="120.0" x2="695.0" y2="110.0" stroke="#000000" stroke-width="2" fill="none" />
  <line x1="720.0" y1="175.0" x2="720.0" y2="160.0" stroke="#000000" stroke-width="2" fill="none" />
  <line x1="720.0" y1="170.0" x2="695.0" y2="170.0" stroke="#000000" stroke-width="2" fill="none" />
  <line x1="720.0" y1="160.0" x2="695.0" y2="160.0" stroke="#000000" stroke-width="2" fill="none" />
  <line x1="885.0" y1="430.0" x2="430.0" y2="430.0" stroke="#000000" stroke-width="2" fill="none" />
  <line x1="730.0" y1="400.0" x2="730.0" y2="430.0" stroke="#000000" stroke-width="2" fill="none" />
  <line x1="730.0" y1="340.0" x2="730.0" y2="300.0" stroke="#000000" stroke-width="2" fill="none" />
  <line x1="970.0" y1="335.0" x2="1125.0" y2="335.0" stroke="#000000" stroke-width="2" fill="none" />
  <line x1="970.0" y1="260.0" x2="970.0" y2="335.0" stroke="#000000" stroke-width="2" fill="none" />
  <line x1="970.0" y1="200.0" x2="970.0" y2="110.0" stroke="#000000" stroke-width="2" fill="none" />
  <line x1="190.0" y1="200.0" x2="190.0" y2="110.0" stroke="#000000" stroke-width="2" fill="none" />
  <line x1="100.0" y1="110.0" x2="515.0" y2="110.0" stroke="#000000" stroke-width="2" fill="none" />
  <line x1="695.0" y1="110.0" x2="1125.0" y2="110.0" stroke="#000000" stroke-width="2" fill="none" />
  <line x1="100.0" y1="160.0" x2="100.0" y2="110.0" stroke="#000000" stroke-width="2" fill="none" />
  <line x1="100.0" y1="350.0" x2="100.0" y2="220.0" stroke="#000000" stroke-width="2" fill="none" />
  <line x1="1125.0" y1="230.0" x2="1125.0" y2="110.0" stroke="#000000" stroke-width="2" fill="none" />
  <line x1="1125.0" y1="335.0" x2="1125.0" y2="290.0" stroke="#000000" stroke-width="2" fill="none" />
  <circle cx="885.0" cy="240.0" r="5" stroke="#000000" stroke-width="0" fill="#000000" />
  <circle cx="190.0" cy="350.0" r="5" stroke="#000000" stroke-width="0" fill="#000000" />
  <circle cx="480.0" cy="190.0" r="5" stroke="#000000" stroke-width="0" fill="#000000" />
  <circle cx="480.0" cy="180.0" r="5" stroke="#000000" stroke-width="0" fill="#000000" />
  <circle cx="480.0" cy="170.0" r="5" stroke="#000000" stroke-width="0" fill="#000000" />
  <circle cx="480.0" cy="200.0" r="5" stroke="#000000" stroke-width="0" fill="#000000" />
  <circle cx="720.0" cy="170.0" r="5" stroke="#000000" stroke-width="0" fill="#000000" />
  <circle cx="515.0" cy="430.0" r="5" stroke="#000000" stroke-width="0" fill="#000000" />
  <circle cx="695.0" cy="430.0" r="5" stroke="#000000" stroke-width="0" fill="#000000" />
  <circle cx="730.0" cy="430.0" r="5" stroke="#000000" stroke-width="0" fill="#000000" />
  <circle cx="270.0" cy="110.0" r="5" stroke="#000000" stroke-width="0" fill="#000000" />
  <circle cx="190.0" cy="110.0" r="5" stroke="#000000" stroke-width="0" fill="#000000" />
  <circle cx="885.0" cy="110.0" r="5" stroke="#000000" stroke-width="0" fill="#000000" />
  <circle cx="970.0" cy="110.0" r="5" stroke="#000000" stroke-width="0" fill="#000000" />
  <circle cx="215.0" cy="350.0" r="5" stroke="#000000" stroke-width="0" fill="#000000" />
  <circle cx="480.0" cy="210.0" r="5" stroke="#000000" stroke-width="0" fill="#000000" />
  <circle cx="1015.0" cy="335.0" r="5" stroke="#000000" stroke-width="0" fill="#000000" />
</svg>

